<svg width="135" height="53" viewBox="0 0 135 53" fill="none" xmlns="http://www.w3.org/2000/svg">
<path d="M128.141 0.737737C127.928 0.437178 128.226 -0.0326549 128.592 0.0839702C128.967 0.405856 128.998 1.13959 129.583 1.17558C130.387 1.42083 130.721 0.51315 131.058 0C131.307 0.110627 131.614 0.305225 131.473 0.641771C131.331 1.14692 130.717 1.3995 130.225 1.3975C129.517 1.41949 128.49 1.50613 128.141 0.737737Z" fill="white"/>
<path d="M10.7046 1.9673C11.988 1.6794 13.2828 2.45846 13.8386 3.58805C14.1038 4.27781 14.1789 5.0442 14.0259 5.76794C13.9138 6.50102 13.3889 7.08414 12.8411 7.54864C11.6953 8.50963 9.77154 8.22174 8.92174 7.01017C8.16793 6.06117 8.08469 4.69899 8.5304 3.60072C8.97007 2.78901 9.73663 2.0526 10.7046 1.9673ZM11.0355 2.22921C10.6905 2.31318 10.3179 2.40048 10.042 2.63773C9.3802 3.33348 9.26609 4.35512 9.32717 5.26746C9.31106 6.00453 9.50102 6.77159 10.0098 7.32806C10.6522 7.94517 11.7396 7.84587 12.3981 7.31006C12.8922 6.86355 13.0358 6.16314 13.0512 5.52603C13.0284 4.75764 13.0794 3.94859 12.7311 3.23618C12.4337 2.60974 11.7551 2.13257 11.0355 2.22921Z" fill="white"/>
<path d="M18.7206 2.85765C19.2925 2.22254 20.1584 1.88 21.0142 1.93264C21.558 1.9533 22.0654 2.16523 22.591 2.28052C22.7125 2.13524 22.8387 1.99196 22.9864 1.87133C23.0273 2.57042 23.0683 3.27017 23.0696 3.97125C22.8246 3.53274 22.6413 3.04092 22.2661 2.68971C21.3969 1.92931 19.802 2.13524 19.3053 3.22952C18.8468 4.28181 18.8052 5.52003 19.2073 6.59698C19.6026 7.54731 20.8095 7.82521 21.7399 7.64394C22.3849 7.45201 22.7494 6.86689 23.2314 6.45103C23.1857 6.85756 22.8508 7.14412 22.5823 7.42335C21.7036 8.27105 20.1947 8.37835 19.2066 7.65994C18.4246 7.17011 17.9339 6.27243 17.9064 5.35809C17.805 4.45641 18.1608 3.55473 18.7206 2.85765Z" fill="white"/>
<path d="M47.1909 1.93131C47.2412 1.93264 47.3432 1.93464 47.3936 1.93598C48.1158 3.62404 48.8146 5.32144 49.5275 7.0135C49.6765 7.38803 49.9712 7.71392 50.384 7.80122C50.3947 7.83188 50.4162 7.89319 50.4269 7.92384C49.6604 7.93384 48.8951 7.93384 48.1293 7.93051C48.134 7.88985 48.1427 7.80788 48.1467 7.76723C48.3568 7.72058 48.573 7.66793 48.7817 7.60662C48.636 7.05415 48.4333 6.51901 48.187 6.00386C47.4171 5.99853 46.6471 5.99786 45.8779 6.00786C45.698 6.4537 45.4664 6.88155 45.3375 7.34538C45.2328 7.69726 45.753 7.70592 45.9725 7.77256C45.9766 7.81122 45.9853 7.88919 45.99 7.92851C45.3805 7.93184 44.7724 7.93251 44.1649 7.92851C44.1729 7.89252 44.189 7.82055 44.1978 7.78456C44.4273 7.69259 44.6851 7.59996 44.8214 7.3787C45.0254 7.06415 45.1241 6.69761 45.2751 6.35707C45.5604 5.70597 45.8531 5.0562 46.1061 4.3911C46.4115 3.5474 46.8358 2.75435 47.1909 1.93131ZM46.0564 5.64599C46.7304 5.67598 47.4043 5.66398 48.0796 5.66198C47.7091 4.89092 47.4043 4.09254 47.0808 3.30149C46.6317 4.0319 46.3619 4.85027 46.0564 5.64599Z" fill="white"/>
<path d="M63.0632 2.6284C63.6169 2.1379 64.3748 1.88733 65.1152 1.93598C65.6488 1.89932 66.1093 2.24054 66.6376 2.2412C66.7966 2.15656 66.9282 2.03061 67.0759 1.92798C67.1148 2.59907 67.1927 3.26684 67.2685 3.93393C67.2162 3.93327 67.1114 3.93127 67.0591 3.9306C66.8631 3.48542 66.7214 2.98094 66.3288 2.65972C65.6018 2.08326 64.454 2.09059 63.768 2.72969C62.8705 3.80998 62.7181 5.44606 63.3504 6.68762C63.7868 7.55864 64.8816 7.80922 65.7743 7.64727C66.4482 7.49 66.7906 6.83756 67.3491 6.49369C66.8134 7.93251 64.9198 8.54496 63.584 7.8472C62.4745 7.29673 61.8757 6.03518 61.9851 4.83561C62.0529 4.00257 62.4611 3.20552 63.0632 2.6284Z" fill="white"/>
<path d="M0.102227 2.03261C1.70584 2.09059 3.31146 2.0606 4.91641 2.06793C4.90231 2.52843 4.88083 2.98893 4.85197 3.44877C4.80134 3.42364 4.74535 3.48308 4.73026 3.3819C4.68872 3.10326 4.59016 2.71409 4.41767 2.54843C3.58063 2.27985 2.68116 2.43313 1.81726 2.39981C1.82062 3.73334 1.80921 5.06686 1.81256 6.40039C1.8233 6.77159 1.80921 7.15012 1.90654 7.51266C2.06053 7.69884 2.51428 7.73014 2.74743 7.77618C2.8207 7.79065 2.78713 7.86126 2.78688 7.93618C1.98441 7.95817 1.00841 7.94384 0.137803 7.92917C0.139817 7.89186 0.142502 7.81788 0.143845 7.78056C0.380124 7.71392 0.791598 7.79855 0.91108 7.50399C1.0903 6.61498 0.986931 5.6993 1.01579 4.79962C0.980218 4.03123 1.1091 3.24351 0.91645 2.48845C0.743268 2.23054 0.374754 2.25853 0.104913 2.1559C0.104241 2.12524 0.102899 2.06327 0.102227 2.03261Z" fill="white"/>
<path d="M26.552 2.02395C27.3555 2.05927 28.161 2.07326 28.9658 2.04194C28.9732 2.06993 28.988 2.12724 28.996 2.15523C28.7504 2.22854 28.5107 2.31984 28.2845 2.4398C28.739 3.63737 29.4887 4.69233 30.1211 5.79993C30.3184 5.3421 30.5305 4.89092 30.7037 4.42309C30.9447 3.78132 31.2783 3.16687 31.3749 2.47978C31.1937 2.37182 31.0131 2.26453 30.8272 2.16589C30.8332 2.13257 30.846 2.0666 30.852 2.03328C31.4535 2.04927 32.0576 2.06993 32.659 2.03661C32.6637 2.06593 32.6725 2.12524 32.6772 2.15457C32.3019 2.31584 31.9166 2.5351 31.7643 2.93762C31.4407 3.61005 31.1803 4.3118 30.8708 4.99156C30.5023 5.85991 30.1935 6.77892 29.6055 7.53198C29.3196 7.91851 28.8464 8.17909 28.3523 8.10778C28.1113 8.07712 27.8563 7.91251 27.8093 7.66327C27.8341 7.51199 27.8328 7.38837 27.9862 7.32123C28.2167 7.28507 28.2936 7.41752 28.4214 7.47098C28.6321 7.55911 28.799 7.52501 29.1813 7.37004C29.4263 7.23942 29.5391 6.96885 29.6968 6.75693C29.2974 6.03185 28.9269 5.28945 28.4637 4.60169C28.0247 3.95326 27.7771 3.19153 27.2723 2.58508C27.0467 2.40781 26.7944 2.27186 26.5359 2.15057C26.54 2.11858 26.548 2.05593 26.552 2.02395Z" fill="white"/>
<path d="M35.9421 2.10658C37.59 2.01395 39.2426 2.11591 40.8905 2.03261C40.8852 2.06526 40.8731 2.13057 40.867 2.16256C40.6133 2.25653 40.2347 2.22321 40.1199 2.50977C39.9481 3.16887 40.0246 3.85996 40.0025 4.53305C40.0253 5.57868 39.9286 6.64896 40.1898 7.67327C40.4133 7.70325 40.6395 7.73191 40.8644 7.76257C40.8798 8.41567 40.8919 9.07077 40.8509 9.7232C40.5455 9.30802 40.465 8.75621 40.079 8.39634C39.5964 7.95783 38.8815 7.9465 38.2666 7.91985C37.686 7.93917 37.0758 7.85254 36.5207 8.06446C35.7911 8.2424 35.3313 8.94748 35.1984 9.6459C35.1601 9.65256 35.0842 9.66589 35.046 9.67189C35.0426 9.04544 35.042 8.419 35.0507 7.79322C35.5273 7.67526 35.9898 7.40003 36.2005 6.94419C36.8704 5.63732 36.9839 4.1132 36.9107 2.67371C36.8268 2.2312 36.2757 2.22987 35.9421 2.10658ZM37.4672 2.40181C37.3557 3.44611 37.347 4.50439 37.1188 5.53336C36.9819 6.27576 36.6261 6.95286 36.2374 7.59329C37.204 7.60529 38.172 7.61729 39.1372 7.54731C39.1399 5.83192 39.1379 4.11653 39.1372 2.40048C38.5801 2.39981 38.0236 2.39981 37.4672 2.40181Z" fill="white"/>
<path d="M56.3587 2.04594C57.0374 2.06793 57.7637 2.34583 58.0926 2.97627C58.4383 3.60072 58.2664 4.46241 57.7066 4.91025C57.0944 5.45139 56.199 5.32077 55.4512 5.22081C55.4452 5.88124 55.4277 6.54167 55.4452 7.2021C55.4499 7.35871 55.4747 7.53265 55.5935 7.64727C55.8003 7.72258 56.0312 7.72391 56.2493 7.76123C56.2513 7.80322 56.2554 7.88719 56.2574 7.92917C55.4022 7.93317 54.5477 7.93384 53.6939 7.92984C53.706 7.88852 53.7295 7.80522 53.7416 7.7639C53.957 7.74924 54.1826 7.73658 54.4014 7.72391C54.637 5.96054 54.4558 4.17185 54.5068 2.39848C54.2329 2.28319 53.9443 2.20521 53.663 2.11191C54.5605 2.0586 55.4599 2.0486 56.3587 2.04594ZM55.4505 2.44913C55.4472 3.28616 55.4472 4.12386 55.4485 4.9609C55.8271 4.99355 56.2205 5.02821 56.5903 4.93158C57.4321 4.51772 57.4636 3.1902 56.7555 2.63439C56.3863 2.3405 55.8835 2.45246 55.4505 2.44913Z" fill="white"/>
<path d="M88.3376 2.02928C89.8748 2.08459 91.4153 2.08659 92.9531 2.03927C93.0014 2.47045 93.0283 2.9043 93.0478 3.33881C93.0055 3.33281 92.9222 3.32015 92.8806 3.31415C92.7591 2.97027 92.6208 2.47912 92.1919 2.43846C91.4911 2.37249 90.787 2.39915 90.0855 2.39848C90.0835 3.15621 90.0849 3.91394 90.0855 4.67234C90.7038 4.63502 91.3542 4.75364 91.9603 4.5957C92.2275 4.41243 92.2637 4.04523 92.4148 3.77599C92.4336 4.50106 92.4356 5.2268 92.4208 5.95188C92.2805 5.67731 92.2376 5.31677 91.967 5.13284C91.3602 4.9489 90.7091 5.01955 90.0855 4.98956C90.0835 5.80993 90.0822 6.6303 90.0909 7.45068C90.1386 7.49866 90.1882 7.54731 90.2386 7.59529C90.9333 7.5833 91.6489 7.66727 92.3329 7.50866C92.8947 7.34738 93.0793 6.74826 93.4357 6.35307C93.3397 6.88421 93.1464 7.3907 92.9927 7.90652C91.4381 7.9525 89.8828 7.93117 88.3289 7.92718C88.3416 7.89385 88.3678 7.82721 88.3806 7.79322C88.6182 7.72591 88.9317 7.76523 89.1283 7.58063C89.2525 7.34338 89.1706 7.05349 89.2149 6.80091C89.219 5.57801 89.2203 4.35445 89.2136 3.13155C89.1901 2.87831 89.2344 2.56709 89.0619 2.3505C88.8558 2.20855 88.5846 2.21988 88.3504 2.16589C88.347 2.13124 88.341 2.06326 88.3376 2.02928Z" fill="white"/>
<path d="M96.8242 2.09592C97.6941 1.99129 98.5708 2.08326 99.4447 2.09059C99.1386 2.19122 98.6507 2.24587 98.5855 2.64173C98.505 3.35814 98.5426 4.08055 98.5426 4.79962C99.4595 4.80096 100.377 4.80096 101.296 4.79896C101.285 4.07988 101.342 3.3548 101.262 2.63839C101.222 2.2372 100.717 2.22521 100.421 2.16123C100.432 2.12991 100.454 2.06726 100.465 2.03594C101.324 2.0626 102.184 2.05727 103.045 2.06593C102.749 2.19455 102.453 2.31517 102.167 2.46179C102.21 4.15252 102.079 5.85391 102.228 7.53731C102.403 7.74724 102.753 7.70459 103.009 7.77856C103.011 7.81055 103.014 7.87453 103.016 7.90652C102.151 7.9385 101.287 7.93584 100.423 7.93051C100.423 7.88852 100.426 7.80455 100.427 7.76257C100.685 7.73858 100.949 7.70592 101.205 7.65194C101.303 6.80091 101.303 5.94188 101.278 5.08685C100.372 5.0622 99.4676 5.05153 98.5634 5.08086C98.5453 5.92589 98.4909 6.78092 98.6245 7.62062C98.9104 7.69459 99.2031 7.75324 99.4803 7.86253C98.6097 7.9505 97.7357 7.94317 96.8645 7.92851C96.8665 7.89319 96.8698 7.82255 96.8718 7.78723C97.1491 7.75124 97.431 7.69193 97.6834 7.5653C97.6599 5.86191 97.672 4.15785 97.6747 2.45379C97.4055 2.30385 97.1115 2.20321 96.8242 2.09592Z" fill="white"/>
<path d="M106.321 2.02928C107.204 2.07326 108.09 2.06127 108.975 2.08326C108.686 2.20655 108.247 2.22654 108.104 2.55842C108.04 3.30349 108.072 4.05256 108.076 4.79962C108.97 4.80029 109.864 4.80029 110.759 4.79896C110.759 4.02923 110.793 3.25817 110.734 2.49045C110.555 2.22987 110.198 2.20455 109.93 2.08792C110.796 2.06326 111.665 2.05593 112.533 2.08259C112.302 2.17123 112.057 2.21988 111.851 2.35583C111.629 2.5131 111.67 2.83832 111.644 3.06757C111.61 4.28914 111.631 5.51204 111.629 6.73427C111.636 7.03149 111.61 7.41469 111.856 7.63728C112.056 7.72125 112.282 7.72325 112.498 7.76257C112.5 7.80389 112.506 7.88719 112.509 7.92851C111.653 7.93384 110.798 7.93384 109.944 7.92851C109.956 7.89052 109.981 7.81455 109.993 7.77656C110.226 7.74257 110.471 7.70925 110.707 7.66993C110.773 6.80358 110.763 5.93455 110.761 5.0662C109.865 5.06486 108.97 5.06553 108.076 5.06686C108.087 5.87391 108.014 6.69095 108.117 7.492C108.29 7.78123 108.725 7.71392 109.009 7.86653C108.117 7.94983 107.222 7.94384 106.33 7.92917C106.331 7.89119 106.333 7.81455 106.334 7.77656C106.561 7.72925 106.832 7.7619 107.045 7.64128C107.226 7.51665 107.136 7.23276 107.192 7.06548C107.225 5.84325 107.2 4.62102 107.206 3.39879C107.173 3.07957 107.242 2.73236 107.1 2.43247C106.902 2.2372 106.594 2.22921 106.345 2.15856C106.339 2.12591 106.327 2.06127 106.321 2.02928Z" fill="white"/>
<path d="M120.793 2.10125C121.634 2.00262 122.489 2.07459 123.336 2.02994C123.349 2.0586 123.373 2.11591 123.385 2.14457C123.162 2.22721 122.848 2.17123 122.672 2.36316C122.446 2.77834 122.538 3.28083 122.503 3.73267C122.53 5.03487 122.413 6.34907 122.612 7.64261C122.891 7.70459 123.179 7.74991 123.446 7.86187C122.571 7.95317 121.692 7.94184 120.816 7.92718C120.83 7.89452 120.858 7.83054 120.872 7.79855C121.077 7.73991 121.329 7.73858 121.515 7.61262C121.709 7.478 121.657 7.19077 121.691 6.99884C121.716 5.66665 121.717 4.33246 121.69 3.00026C121.677 2.77168 121.682 2.46379 121.461 2.31917C121.252 2.21521 121.008 2.17323 120.793 2.10125Z" fill="white"/>
<path d="M71.0302 2.07126C72.6613 2.06326 74.2924 2.0666 75.9236 2.06793C75.9209 2.53576 75.9195 3.0036 75.9182 3.47143C75.882 3.4661 75.8095 3.45477 75.7732 3.44944C75.6839 3.10223 75.5732 2.67505 75.2201 2.50444C74.769 2.39715 74.3005 2.40847 73.8427 2.37649C73.8514 3.8293 73.8179 5.28145 73.8474 6.73427C73.84 7.04949 73.9065 7.35804 73.9642 7.66593C74.1891 7.69326 74.4146 7.71992 74.6415 7.74591C74.6435 7.79189 74.6475 7.88452 74.6496 7.93117C73.8165 7.93317 72.9842 7.93317 72.1518 7.92718C72.1653 7.89252 72.1914 7.82321 72.2042 7.78789C72.4593 7.74391 72.719 7.68926 72.9681 7.61129C72.9694 5.86791 72.9694 4.12453 72.9681 2.38115C72.5197 2.40847 72.0505 2.36916 71.6222 2.52977C71.2685 2.70437 71.1987 3.13355 71.0684 3.4661C71.0268 3.45677 70.9429 3.43877 70.9013 3.42944C70.9563 2.97761 71.0168 2.52643 71.0302 2.07126Z" fill="white"/>
<path d="M79.2382 2.10792C80.2571 2.0546 81.2788 2.05593 82.3004 2.05927C82.867 2.02794 83.4456 2.20455 83.8926 2.55242C84.345 2.89364 84.5518 3.55074 84.3276 4.07721C84.188 4.48507 83.8168 4.74764 83.4462 4.93424C83.9121 5.05753 84.388 5.3461 84.5773 5.80393C84.678 6.19113 84.6894 6.6303 84.5088 6.99684C84.296 7.59529 83.6067 7.83588 83.0294 7.90518C81.7762 7.97782 80.5203 7.91851 79.2671 7.92518C79.2798 7.89185 79.3046 7.82455 79.3174 7.79122C79.5349 7.73658 79.8014 7.77123 80.0034 7.64794C80.2303 7.43535 80.0927 7.06815 80.1538 6.80091C80.1652 5.35076 80.137 3.89994 80.1585 2.44979C79.8705 2.28985 79.549 2.20655 79.2382 2.10792ZM81.0251 2.46712C81.023 3.20286 81.0224 3.9386 81.0244 4.675C81.6298 4.71965 82.2534 4.77363 82.8468 4.61036C83.5556 4.31446 83.6698 3.2775 83.1274 2.77701C82.5515 2.29452 81.7185 2.19189 81.0251 2.46712ZM81.0244 5.11751C81.0217 5.92522 81.0217 6.73293 81.0251 7.53998C81.7359 7.5833 82.5575 7.75724 83.1851 7.34205C83.9201 6.87088 83.749 5.65199 82.9851 5.31677C82.3769 4.99222 81.6815 5.0562 81.0244 5.11751Z" fill="white"/>
<path d="M115.822 2.10925C116.72 2.05593 117.625 2.03861 118.526 2.10058C118.277 2.20921 117.997 2.24054 117.757 2.35849C117.575 2.47112 117.595 2.70704 117.571 2.89497C117.523 3.47809 117.535 4.06388 117.536 4.64901C118.487 4.70632 119.709 4.61036 120.353 5.47272C120.97 6.33441 120.367 7.66527 119.345 7.85453C118.186 8.01648 117.008 7.90985 115.843 7.92051C115.859 7.88986 115.89 7.82921 115.905 7.79855C116.139 7.72991 116.505 7.77123 116.641 7.50866C116.76 7.24675 116.699 6.94419 116.735 6.66762C116.737 5.44539 116.755 4.2225 116.723 3.00026C116.699 2.79634 116.737 2.48511 116.514 2.36382C116.288 2.25919 116.05 2.20188 115.822 2.10925ZM117.54 5.03287C117.538 5.89123 117.538 6.75026 117.54 7.60929C117.987 7.64528 118.481 7.71458 118.883 7.47267C119.606 7.1228 119.844 6.00319 119.231 5.45206C118.769 5.04887 118.127 4.98422 117.54 5.03287Z" fill="white"/>
<path d="M126.636 2.09725C127.531 2.05793 128.431 2.0446 129.328 2.09592C129.103 2.19988 128.854 2.26053 128.634 2.36716C128.434 2.50244 128.453 2.797 128.431 3.00026C128.379 4.15985 128.417 5.32144 128.424 6.48236C129.293 5.42807 130.15 4.36311 130.961 3.26484C131.182 3.05025 131.273 2.6324 131.028 2.40514C130.826 2.20188 130.509 2.20521 130.253 2.10925C131.128 2.05327 132.008 2.04994 132.885 2.09392C132.609 2.26453 132.147 2.26453 132.08 2.64173C131.993 3.53541 132.047 4.43575 132.032 5.33277C132.04 6.10916 131.992 6.89354 132.146 7.6606C132.377 7.68793 132.604 7.71525 132.839 7.74324C132.841 7.78989 132.845 7.88386 132.847 7.93051C131.994 7.93317 131.142 7.93451 130.292 7.92917C130.295 7.89186 130.299 7.81588 130.301 7.77856C130.537 7.68726 131.075 7.79722 131.13 7.43868C131.218 6.13381 131.152 4.82428 131.158 3.51808C130.382 4.48573 129.631 5.47272 128.867 6.4497C128.638 6.7316 128.324 7.04082 128.434 7.44335C128.607 7.77323 129.047 7.71192 129.347 7.86786C128.451 7.94917 127.553 7.9445 126.657 7.92718C126.67 7.89385 126.696 7.82721 126.709 7.79389C126.945 7.72658 127.261 7.76457 127.457 7.58063C127.581 7.34338 127.497 7.05349 127.544 6.80091C127.536 5.42273 127.564 4.04323 127.536 2.66572C127.489 2.2432 126.927 2.24587 126.636 2.09725Z" fill="white"/>
<path d="M0.759378 10.7362C0.950683 10.7528 1.14065 10.7762 1.33061 10.8015C1.39706 11.4812 1.60314 12.1683 2.0381 12.7081C2.32741 13.0047 2.73553 13.2133 3.15976 13.196C3.6887 13.2173 4.26127 13.2493 4.73182 12.9647C5.86622 12.3389 7.16844 12.0604 8.46193 12.077C9.47015 12.143 10.5066 12.197 11.4389 12.6242C11.8248 12.8643 12.3995 13.2383 12.4941 13.334C13.6197 14.1824 14.3233 15.08 14.9173 16.3875C15.4993 17.5624 15.7691 18.8859 15.7161 20.1941C15.706 23.9708 15.7134 27.7474 15.7134 31.5241C15.698 33.664 15.0019 35.8712 13.4493 37.408C13.1378 37.7046 12.8062 37.9818 12.5317 38.3137C14.7589 37.8612 16.9243 37.1634 19.1106 36.5536C19.1697 29.7681 19.1133 22.9811 19.1395 16.1949C19.1992 15.2606 18.928 14.2776 18.2668 13.5918C17.5593 12.8947 16.5055 12.8441 15.5731 12.7801C15.5664 12.6315 15.5604 12.4836 15.5577 12.3356C19.4798 12.3209 23.4019 12.3389 27.3246 12.3256C28.8269 12.3063 30.4171 12.5928 31.6468 13.5019C32.0959 13.8397 32.457 14.2862 32.7141 14.7827C33.0947 15.6024 33.1692 16.5128 33.2679 17.3978C33.3612 19.6497 33.2363 21.9049 33.3323 24.1567C33.4169 25.187 33.1128 26.2706 32.4201 27.0544C31.8059 27.8654 30.891 28.3679 29.9707 28.7624C29.5411 28.949 29.0565 28.907 28.6 28.929C27.2575 28.9317 25.915 28.9177 24.5725 28.9257C24.5719 30.9043 24.5685 32.8836 24.5739 34.8629C25.6761 34.6157 26.7608 34.2951 27.8683 34.0659C30.0882 33.6407 32.2925 33.1235 34.5332 32.8123C35.1829 32.675 35.8454 32.617 36.4979 32.4971C36.5456 28.152 36.512 23.8062 36.516 19.4604C36.4408 18.0322 36.4979 16.5981 36.3918 15.1726C36.1596 14.4215 35.6286 13.7584 34.9594 13.3439C34.5654 13.094 34.0814 13.056 33.6337 12.9714C33.6062 12.8034 33.578 12.6342 33.5558 12.4669C35.973 12.4616 38.3895 12.4602 40.8066 12.4676C42.2793 17.4198 43.6373 22.406 45.1462 27.3483C45.4134 26.3166 45.6517 25.2737 46.0095 24.268C46.1497 23.9115 46.1518 23.5216 46.2659 23.1577C47.0318 20.3221 47.752 17.4738 48.5011 14.6335C48.7213 13.8737 48.9166 13.1067 49.0938 12.3356C55.0975 12.3356 61.1024 12.3089 67.1061 12.3489C67.098 12.5575 67.0806 12.7661 67.0571 12.974C66.2576 13.118 65.3615 13.226 64.801 13.8824C64.3264 14.4195 64.2398 15.1619 64.2566 15.849C64.2251 20.2514 64.2499 24.6552 64.2432 29.0583C64.4338 29.053 64.6513 29.0596 64.8487 29.0576C65.3709 27.047 65.728 24.9971 66.2596 22.9891C66.3744 22.6479 66.4281 22.2927 66.4872 21.9395C67.1906 18.7313 67.9632 15.5391 68.6862 12.3356C71.3262 12.3236 73.9662 12.3323 76.6062 12.3303C76.6653 12.5802 76.6948 12.8354 76.7237 13.0913C75.7437 13.1993 74.7274 13.4172 73.9152 14.0023C73.5279 14.2682 73.303 14.7088 73.2789 15.1726C73.1735 16.7334 73.2748 18.2988 73.2305 19.8616C73.1144 22.8805 73.1909 25.9028 73.1708 28.9237C76.3055 28.8697 79.4362 29.0143 82.5669 29.1303C82.5669 23.7362 82.5696 18.3428 82.5656 12.9494C81.9796 12.9121 81.3795 13.1167 81.015 13.5892C80.2639 14.5162 79.8859 15.6711 79.5617 16.8007C78.9039 19.1485 78.5643 21.569 78.3152 23.9888C78.0843 25.3783 78.0883 26.7911 77.9447 28.19C77.7265 28.1853 77.542 28.1933 77.3325 28.1913C77.3312 22.9045 77.3312 17.6177 77.3325 12.3309C82.6575 12.3303 87.9818 12.3296 93.3069 12.3309C93.3122 14.6634 93.3001 16.9953 93.3102 19.3278C93.4109 22.2941 93.3854 25.2637 93.3532 28.2313C93.1491 28.2393 92.9652 28.2526 92.7692 28.2626C92.6631 26.1827 92.5973 24.0981 92.2919 22.0341C92.1355 20.4214 91.82 18.832 91.4428 17.2572C91.1193 16.0723 90.7474 14.8694 90.0305 13.8537C89.6539 13.2513 89.0015 12.8121 88.2792 12.7655C88.2389 15.4192 88.3383 18.0749 88.2114 20.7266C88.1966 23.7449 88.2094 26.7638 88.2074 29.7821C90.4131 29.8247 92.602 30.1106 94.7789 30.4472C95.6911 26.0194 96.5523 21.581 97.3525 17.1312C97.5183 16.3049 97.6538 15.4605 97.5827 14.6161C97.527 14.0377 97.2155 13.4445 96.6376 13.2326C95.7797 12.9521 94.8547 12.9874 93.9747 13.1353C93.9465 12.9121 93.9217 12.6881 93.9002 12.4649C96.7946 12.4609 99.6897 12.4656 102.585 12.4622C103.755 17.8283 104.842 23.2144 105.995 28.5851C106.213 29.7687 106.542 30.9276 106.741 32.1152C106.796 32.3005 106.78 32.5711 107.003 32.6484C107.707 32.9216 108.424 33.1688 109.149 33.3861C109.145 31.81 109.178 30.2326 109.094 28.6585C109.082 27.9734 109.004 27.2876 109.042 26.6019C109.146 25.8295 109.383 25.0731 109.736 24.3766C110.146 23.6302 110.799 23.0031 111.602 22.6886C112.85 22.1948 114.242 22.2814 115.543 22.4946C114.859 22.0881 114.287 21.4084 114.212 20.5987C114.062 19.0865 114.053 17.5637 114.039 16.0449C113.63 16.5648 113.306 17.1959 112.678 17.4884C111.829 17.8476 110.838 17.9136 109.972 17.5777C109.178 17.3571 108.552 16.744 108.178 16.0336C107.986 15.4412 107.742 14.7807 108.043 14.1736C108.202 13.5718 108.623 13.0513 109.175 12.7608C109.979 12.3449 110.912 12.179 111.813 12.287C112.491 12.4389 113.172 12.6528 113.77 13.01C114.202 13.4079 114.711 13.8984 114.706 14.5302C114.797 16.5281 114.887 18.5274 114.934 20.5267C115.02 20.9732 115.242 21.433 115.649 21.6749C116.129 22.0615 116.739 22.1928 117.326 22.3307C117.437 19.6877 117.451 17.0379 117.344 14.3942C117.366 14.0017 117.239 13.5892 116.956 13.3093C116.35 12.7568 115.463 12.9714 114.722 12.8534C114.722 12.7561 114.721 12.5615 114.72 12.4642C118.447 12.4742 122.174 12.4396 125.901 12.4822C125.908 12.5855 125.922 12.7914 125.929 12.8947C125.276 12.958 124.587 13.058 124.06 13.4792C123.189 14.071 122.975 15.2159 123.041 16.1949C123.128 18.2655 123.112 20.3381 123.114 22.4107C123.836 22.3094 124.587 22.1135 125.126 21.5956C125.607 21.1611 125.782 20.4894 125.788 19.8629C125.792 18.5067 125.865 17.1519 125.863 15.795C125.874 15.046 125.884 14.2369 126.341 13.6025C126.893 12.6322 128.083 12.235 129.151 12.2643C130.032 12.277 131.005 12.2916 131.761 12.8074C132.024 13.0134 132.349 13.1833 132.486 13.5045C132.642 13.8731 132.81 14.2376 132.961 14.6088C133.17 15.1186 132.817 15.6298 132.568 16.0563C131.862 17.2752 130.335 17.9409 128.951 17.659C128.389 17.5357 127.819 17.3425 127.389 16.9486C127.072 16.6954 126.856 16.3488 126.625 16.023C126.564 17.5164 126.797 19.0199 126.578 20.506C126.374 21.2284 125.809 21.7609 125.301 22.2854C126.07 22.3667 126.829 22.5346 127.608 22.5153C128.302 22.4973 129.04 22.5906 129.627 22.9891C130.521 23.5643 131.102 24.5166 131.356 25.5296C131.836 26.9897 131.681 28.5472 131.703 30.0573C131.656 32.2765 131.855 34.4937 131.734 36.7129C131.716 37.42 131.953 38.1844 132.544 38.6216C133.221 39.1594 134.103 39.2094 134.916 39.396C134.955 39.5706 134.947 39.7305 135 39.9104C133.793 39.9024 132.59 39.9771 131.389 40.0797C130.199 40.2217 129.031 39.8831 127.9 39.5599C126.534 39.0621 125.188 38.5029 123.809 38.0384C123.975 38.415 124.211 38.7888 124.586 38.9908C125.043 39.2927 125.609 39.3273 126.126 39.4666C126.125 39.6365 126.127 39.8071 126.133 39.9784C122.33 40.1304 118.522 40.0217 114.717 40.0531C114.694 39.8525 114.732 39.6745 114.728 39.4799C115.443 39.2753 116.186 38.9814 116.66 38.383C117.168 37.7432 117.345 36.9228 117.421 36.1291C116.579 35.8099 115.717 35.528 114.825 35.3881C114.629 37.0441 113.928 38.8342 112.362 39.6519C111.283 40.2796 110.004 40.1144 108.813 40.1184C105.553 39.9851 102.289 40.0864 99.0272 40.0511C98.997 39.8351 98.9849 39.6292 98.954 39.4166C99.6837 39.33 100.483 39.2647 101.056 38.7502C101.622 38.2504 101.684 37.4107 101.572 36.7149C101.338 35.2108 101.07 33.7093 100.957 32.1892C99.091 31.8733 97.2008 31.7274 95.338 31.3841C95.0004 33.2421 94.6608 35.0995 94.3345 36.9595C94.2916 37.284 94.2278 37.6166 94.2728 37.9438C94.4077 38.4543 94.7755 38.9015 95.2783 39.0941C96.0368 39.3893 96.8725 39.324 97.67 39.3973C97.6679 39.5706 97.6686 39.7452 97.6713 39.9198C95.6562 39.9324 93.6418 39.8971 91.6287 39.9364C89.4385 40.0511 87.2442 39.9391 85.0539 40.0077C82.8388 40.101 80.621 40.0351 78.4058 40.0531C78.4058 39.8905 78.4065 39.5652 78.4072 39.4026C79.3852 39.322 80.4075 39.3806 81.3405 39.0381C81.9869 38.6729 82.4696 37.9691 82.5266 37.2261C82.6569 35.8179 82.6219 34.4031 82.6515 32.9922C82.7132 31.9479 82.7072 30.9023 82.7018 29.858C80.3961 29.906 78.093 29.7614 75.788 29.7907C74.8919 29.7954 73.9978 29.7407 73.103 29.7187C73.0567 31.7873 73.2158 33.8533 73.1654 35.9225C73.1627 36.7049 73.1111 37.6379 73.7279 38.2337C74.3388 39.0101 75.4047 39.1294 76.3216 39.212C76.3216 39.4693 76.323 39.7272 76.3257 39.9864C73.5279 39.9871 70.7308 39.9884 67.9344 39.9871C66.5879 39.9638 65.2427 39.8964 63.8962 39.9171C63.8968 39.7038 63.917 39.5026 63.9257 39.2927C64.9192 39.3366 65.9448 39.0348 66.6443 38.3064C67.0242 37.8932 67.2813 37.3753 67.4209 36.8355C67.5974 34.495 67.4867 32.1465 67.5337 29.8014C66.8658 29.7901 66.2006 29.7707 65.536 29.7241C65.0547 31.9213 64.4969 34.1012 64.013 36.2984C63.723 37.48 63.4887 38.6755 63.1766 39.8511C56.8635 39.8565 50.5511 39.8538 44.2387 39.8525C44.2394 39.6939 44.2407 39.3773 44.2407 39.2187C45.1174 39.1727 46.1101 39.1521 46.8069 38.5396C47.4734 38.0458 47.703 37.1761 47.7191 36.3877C47.7554 34.7176 47.7178 33.0469 47.7292 31.3768C46.8096 31.3855 45.8953 31.4668 44.9804 31.5354C44.1555 34.2338 43.4305 36.9628 42.6519 39.6752C42.3223 38.8462 42.1498 37.9678 41.8887 37.1174C41.4148 35.5547 40.9791 33.9812 40.5133 32.4171C39.3836 32.5904 38.2646 32.835 37.1248 32.9376C37.1161 34.3298 37.1222 35.7239 37.2255 37.1128C37.2792 37.7732 37.637 38.4356 38.2727 38.7089C39.2198 39.1947 40.3227 38.9561 41.3362 39.0061C41.3268 39.288 41.3114 39.5692 41.2919 39.8511C38.2915 39.8565 35.2917 39.8531 32.2912 39.8531V39.192C33.2632 39.1234 34.4023 39.4273 35.2366 38.7755C36.0998 38.229 36.416 37.1541 36.369 36.1884C36.3321 35.2248 36.3052 34.2611 36.3133 33.2975C34.9822 33.4014 33.6572 33.598 32.3442 33.8433C31.4595 34.1018 30.5312 34.1878 29.6633 34.503C27.9617 34.9529 26.2553 35.3867 24.537 35.7653C24.5027 36.6063 24.4517 37.5566 25.0773 38.2197C25.8331 39.0647 27.0441 39.1327 28.0979 39.2194C28.1147 39.3773 28.1496 39.6925 28.1664 39.8505C24.0147 39.8578 19.8631 39.8531 15.7114 39.8525C15.7107 39.5879 15.7114 39.324 15.7114 39.0607C16.7055 38.9721 17.946 39.2607 18.6857 38.409C19.0522 38.0991 19.075 37.6019 19.163 37.1661C17.7728 37.5113 16.4169 37.9845 15.0173 38.297C13.9165 38.6082 12.8183 38.9328 11.7416 39.3193C10.6274 39.7618 9.43054 39.9091 8.2572 40.1164C7.29866 40.2463 6.24111 40.279 5.28458 40.0917C4.73256 39.8233 4.44063 39.7014 4.19939 39.5754C3.08445 38.8236 2.25156 38.3363 1.45278 37.2207C0.548606 35.9345 0.0257052 34.3651 0.07135 32.7903C0.0760487 31.7427 -0.00450076 30.6964 0.000197964 29.6494C0.216339 29.6534 0.433823 29.6654 0.650636 29.6754C0.679499 30.803 0.709034 31.9306 0.749309 33.0582C0.743939 33.5041 0.869462 33.9339 0.976862 34.3638C1.29101 35.4454 1.6857 36.559 2.49522 37.3813C3.07854 38.0364 3.87128 38.5043 4.73786 38.6749C5.8575 38.8888 7.10467 38.9041 8.11221 38.3057C8.94523 37.8765 9.41712 37.0141 9.70911 36.1638C10.0998 35.0375 9.99439 33.8259 10.0085 32.6564C9.98231 29.5555 10.0461 26.4532 9.97828 23.353C9.74401 23.7515 9.63997 24.208 9.43457 24.6199C8.98953 25.5769 8.23707 26.4213 7.26711 26.8718C6.18439 27.2263 5.02247 27.065 3.90484 27.1403C3.35777 27.1823 2.82346 27.5362 2.61537 28.0453C2.45696 28.5258 2.39185 29.035 2.19987 29.5068C1.88305 28.0273 1.63401 26.4133 2.24485 24.9751C2.64827 23.9135 3.66051 23.2231 4.70362 22.8619C5.77896 22.4667 6.93686 22.5406 8.0612 22.5186C8.88818 22.484 9.73328 21.9349 9.90109 21.0978C10.1172 19.9002 9.96418 18.6713 10.0112 17.4618C9.98633 16.2962 10.0595 15.012 9.43121 13.9697C9.08149 13.3233 8.34245 13.0434 7.67725 12.8421C6.84893 12.6062 5.94073 12.7881 5.23055 13.2579C4.55192 13.6498 4.05117 14.2609 3.47793 14.7807C3.02819 15.1906 2.82279 15.7724 2.61739 16.3255C1.93003 18.3161 1.40847 20.3881 1.32255 22.498C1.14669 22.5086 0.97082 22.5193 0.794954 22.5306C0.692253 20.9319 0.759378 19.3291 0.743268 17.7283C0.754679 15.3978 0.717761 13.0667 0.759378 10.7362ZM53.8375 14.2596C53.5301 14.8081 53.3401 15.4285 53.3657 16.0609C53.371 20.6153 53.3643 25.1697 53.371 29.7241C55.2666 29.5015 57.1824 29.4728 59.0713 29.1876C59.0713 24.9451 59.0833 20.7026 59.0672 16.4608C59.0585 15.3299 58.7484 14.0483 57.7509 13.3766C56.5178 12.4676 54.6081 12.998 53.8375 14.2596ZM24.7068 13.142C24.7128 16.4935 24.5665 19.8423 24.5672 23.1937C24.5141 24.8332 24.4712 26.4732 24.5262 28.1133C25.27 28.1133 26.0379 28.178 26.7601 27.9607C27.3018 27.7928 27.6341 27.2096 27.5891 26.6605C27.6039 22.7726 27.5804 18.8839 27.5992 14.9953C27.5555 14.5208 27.7099 13.9204 27.2756 13.5778C26.6057 12.8861 25.5552 13.104 24.7068 13.142ZM98.256 16.4408C97.5619 20.0668 96.9061 23.7002 96.2127 27.3263C97.5089 27.3249 98.8057 27.3276 100.104 27.3223C100.037 26.6485 99.8891 25.9874 99.7703 25.3216C99.3165 22.3527 98.7352 19.4051 98.256 16.4408ZM37.2208 20.5007C37.1557 24.4046 37.2034 28.3099 37.196 32.2139C38.2639 32.0173 39.3339 31.8307 40.3945 31.5987C39.9481 30.2685 39.6964 28.8777 39.1829 27.5695C39.048 27.1177 39.0171 26.6412 38.864 26.1933C38.3136 24.2967 37.7699 22.398 37.2208 20.5007ZM46.4693 25.6062C45.996 27.3123 45.5208 29.0177 45.0456 30.723C45.9356 30.6311 46.8264 30.5451 47.7131 30.4245C47.7453 27.253 47.7332 24.0801 47.7185 20.9079C47.2506 22.46 46.8774 24.0381 46.4693 25.6062ZM67.0067 23.401C66.6026 25.267 66.1126 27.115 65.7602 28.9917C66.3449 28.991 66.9302 28.9857 67.5162 28.9697C67.5363 26.4359 67.5565 23.9001 67.5021 21.3671C67.2887 22.0321 67.19 22.7272 67.0067 23.401ZM115.775 23.507C115.017 24.0121 114.704 24.9878 114.72 25.8575C114.717 28.7438 114.718 31.6314 114.724 34.5184C115.657 34.7623 116.596 34.9849 117.535 35.2088C117.545 31.1949 117.538 27.1803 117.538 23.1657C116.935 23.0271 116.29 23.1797 115.775 23.507ZM123.112 23.1724C123.11 24.37 123.091 25.5676 123.143 26.7645C123.233 28.8817 123.126 31.0023 123.205 33.1209C123.27 34.3957 123.224 35.6726 123.271 36.9482C124.503 37.4007 125.703 37.9398 126.943 38.377C126.647 37.7072 126.07 37.1228 126.014 36.3664C125.901 35.7353 125.793 35.0995 125.797 34.4571C125.783 31.5681 125.81 28.6791 125.793 25.7901C125.801 25.0611 125.62 24.2887 125.111 23.7389C124.587 23.2164 123.809 23.1624 123.112 23.1724ZM95.9616 28.6285C95.8187 29.2489 95.7535 29.884 95.6495 30.5111C97.3276 30.7824 99.0044 31.0716 100.695 31.2675C100.548 30.2919 100.397 29.3162 100.35 28.3299C99.0494 28.3772 97.7572 28.2179 96.461 28.1953C96.0979 27.998 96.0073 28.4165 95.9616 28.6285ZM64.2311 29.6588C64.2526 30.066 64.2761 30.4738 64.3258 30.8797C64.5016 30.4738 64.6507 30.0566 64.8393 29.6554C64.6413 29.6588 64.4204 29.6514 64.2311 29.6588ZM53.3697 30.5331C53.3677 32.2852 53.367 34.0372 53.3636 35.7892C53.3858 36.3004 53.324 36.8489 53.5724 37.3207C53.8469 37.9238 54.2081 38.5982 54.8766 38.8395C55.6868 39.204 56.6427 39.226 57.4797 38.9295C58.0744 38.7209 58.5564 38.2457 58.8356 37.6906C59.0887 37.0688 59.0686 36.379 59.078 35.7219C59.0726 33.8299 59.0753 31.938 59.0719 30.046C57.1709 30.2046 55.272 30.3918 53.3697 30.5331ZM88.2047 30.5131C88.3168 32.2032 88.2537 33.8979 88.2725 35.5907C88.2712 36.1425 88.3658 36.6923 88.5141 37.2241C88.7518 38.0691 89.4082 38.7948 90.2413 39.0967C91.1031 39.36 92.2006 39.388 92.8779 38.6955C93.6109 37.8492 93.6733 36.6883 93.8855 35.644C94.0815 34.1698 94.4701 32.7297 94.6487 31.2529C93.2189 30.9043 91.7449 30.771 90.2809 30.6684C89.5902 30.5964 88.9001 30.5025 88.2047 30.5131ZM107.15 33.562C107.538 35.2588 107.844 36.9735 108.207 38.6755C108.346 38.9588 108.736 38.9261 108.989 38.9954C109.317 37.4253 109.087 35.8059 109.14 34.2151C108.48 33.9866 107.824 33.744 107.15 33.562Z" fill="white"/>
<path d="M6.98721 43.0113C7.63899 42.98 8.27331 42.8287 8.91502 42.7268C8.4324 44.4702 7.89339 46.1975 7.38928 47.9343C8.1008 47.1939 8.53443 46.1289 9.52452 45.6951C9.81785 45.5551 10.2206 45.5604 10.4555 45.8057C10.6844 46.0376 10.6334 46.4141 10.6536 46.708C10.5079 47.9576 10.1401 49.2125 9.3943 50.2441C9.09358 50.6726 8.62102 51.0418 8.0612 50.9812C7.73766 50.8999 7.34699 50.7319 7.2604 50.3747C7.2349 50.0862 7.50608 49.8109 7.788 49.7869C8.05919 49.8636 8.20417 50.1515 8.46596 50.2474C8.58544 50.2508 8.7009 50.1861 8.77608 50.0968C9.17614 49.5697 9.3265 48.9126 9.5017 48.2888C9.69434 47.6364 9.73529 46.9526 9.75274 46.2775C9.46008 46.2555 9.16003 46.3262 8.93516 46.5208C8.29949 47.0426 7.89876 47.7803 7.46379 48.4621C7.02748 49.0985 6.8986 49.8656 6.63816 50.5773C6.36697 50.578 6.09579 50.5793 5.82528 50.5813C6.22131 48.9259 6.7281 47.2985 7.25168 45.6797C7.42083 44.8927 7.76048 44.1363 7.75511 43.3192C7.49937 43.2899 7.24362 43.2619 6.98721 43.2373C6.98721 43.1613 6.98721 43.086 6.98721 43.0113Z" fill="white"/>
<path d="M22.0802 43.0433C22.3661 42.97 22.6622 42.9294 22.9589 42.9294C23.5462 42.964 24.0617 43.2826 24.6356 43.3785C24.8632 43.3119 24.9847 43.0906 25.1229 42.9174C25.1686 42.928 25.2599 42.95 25.3055 42.9607C25.186 43.4945 24.9954 44.013 24.9377 44.5608C24.8851 44.7784 24.8517 45.1121 24.7842 45.4419C24.7462 45.6276 24.5583 45.5291 24.5583 45.5291C24.5009 45.0305 24.6162 44.4408 24.2859 44.003C23.718 43.1853 22.2332 43.1033 21.7385 44.037C21.66 44.3829 21.6137 44.7954 21.8191 45.1126C22.3896 46.0356 23.3441 46.6347 23.9825 47.5037C24.5208 48.4561 24.2121 49.9056 23.1616 50.3814C22.44 50.8612 21.515 50.8119 20.7263 50.5387C20.4323 50.4447 20.1396 50.3274 19.8235 50.3401C19.5656 50.3792 19.4465 50.593 19.3355 50.7878C19.3355 50.7878 19.2472 50.768 19.2106 50.7672C19.2885 50.2967 19.4073 49.8356 19.5342 49.3771C19.6381 48.9979 19.8298 47.8507 19.8298 47.8507L19.9825 47.8761C20.0141 48.5352 19.9637 49.2458 20.4027 49.7916C21.0136 50.472 22.2708 50.5793 22.8931 49.8562C23.1898 49.4657 23.3166 48.9299 23.1562 48.4587C22.6447 47.3011 21.46 46.644 20.8384 45.5624C20.3269 44.5555 21.0679 43.3446 22.0802 43.0433Z" fill="white"/>
<path d="M0.950683 43.0573C2.85501 43.05 4.76001 43.0473 6.66434 43.0587C6.41513 43.5721 6.27458 44.5245 6.14363 45.1992C6.14363 45.1992 6.03985 45.1872 5.89844 45.1759C5.85817 44.7934 5.93872 44.4042 5.87025 44.0256C5.83535 43.8217 5.66284 43.6544 5.45475 43.6344C5.00703 43.5751 4.55394 43.5865 4.1042 43.5791C3.75851 44.8127 3.37523 46.0349 3.03826 47.2705C2.76909 48.1608 2.44354 49.0499 2.3603 49.9815C2.45696 50.424 3.01678 50.3554 3.3665 50.4094C3.35576 50.4474 3.33562 50.522 3.32488 50.56C2.24015 50.5946 1.15407 50.5866 0.0686651 50.5807C0.0726926 50.542 0.079405 50.4647 0.0827613 50.4254C0.406973 50.3334 0.813078 50.3647 1.06681 50.1101C1.20844 49.9422 1.29168 49.7343 1.35746 49.5277C1.70919 48.2848 2.05287 47.0392 2.45226 45.811C2.78386 45.1006 2.88924 44.3155 3.1168 43.5711C2.50328 43.6205 1.80317 43.5092 1.28429 43.919C0.870134 44.1383 0.820799 44.7094 0.659028 45.0959C0.553642 45.1246 0.434495 45.1013 0.328438 45.1306C0.588882 44.4548 0.713062 43.7397 0.950683 43.0573Z" fill="white"/>
<path d="M46.4169 43.0753C47.4171 43.0427 48.4186 43.0473 49.4194 43.056C49.4033 43.124 49.3872 43.1926 49.3717 43.2619C49.0744 43.3452 48.7206 43.3745 48.5011 43.6185C48.1729 44.009 48.1172 44.5268 47.938 44.9866C47.7594 45.4618 47.6601 45.9596 47.5292 46.4481C48.6743 46.4541 49.8188 46.4514 50.9646 46.4541C51.219 45.5271 51.5996 44.6201 51.6842 43.6578C51.5949 43.2799 51.1136 43.3559 50.8136 43.2879C50.8236 43.2166 50.8351 43.1453 50.8471 43.0753C51.8715 43.0413 52.8965 43.0473 53.9221 43.0593C53.9033 43.1226 53.8845 43.1873 53.8664 43.2513C53.514 43.3446 53.0663 43.4019 52.8622 43.7451C52.6461 44.1123 52.5749 44.5381 52.4507 44.94C52.0319 46.3462 51.5882 47.7457 51.1821 49.1558C51.1338 49.4884 50.8995 49.9269 51.174 50.2208C51.3955 50.3261 51.6526 50.3541 51.8916 50.414C51.8829 50.45 51.8668 50.5233 51.858 50.5593C50.8841 50.5926 49.9101 50.586 48.9361 50.5826C48.9388 50.5353 48.9428 50.4407 48.9448 50.3927C49.1965 50.3514 49.4483 50.3087 49.7013 50.2681C50.3215 49.2265 50.5202 48.0089 50.8404 46.8566C49.6973 46.8466 48.5542 46.846 47.4117 46.8586C47.1754 47.3478 47.0405 47.8723 46.9257 48.4008C46.7418 48.9972 46.5673 49.6117 46.6237 50.2428C46.8767 50.2954 47.1298 50.3527 47.3842 50.4027C47.3882 50.4474 47.3956 50.5367 47.3996 50.5813C46.3988 50.5813 45.3986 50.6 44.3991 50.566C44.4012 50.5333 44.4052 50.4674 44.4072 50.434C44.8039 50.3107 45.351 50.2881 45.4939 49.8302C45.7671 49.0165 46.0014 48.1902 46.2276 47.3625C46.3558 46.8047 46.6666 46.3028 46.7458 45.7337C46.8344 45.012 47.2667 44.3582 47.1714 43.6111C47.0821 43.2739 46.6532 43.3539 46.384 43.2872C46.3941 43.2159 46.4048 43.1453 46.4169 43.0753Z" fill="white"/>
<path d="M97.8163 43.0547C98.4473 43.0527 99.0796 43.0507 99.7126 43.0673C99.9804 45.0699 100.11 47.0926 100.454 49.0858C100.84 48.5374 101.205 47.9729 101.622 47.4451C102.362 46.5068 102.973 45.4718 103.773 44.5788C104.141 44.0896 104.441 43.5531 104.805 43.0593C105.391 43.054 105.979 43.0553 106.568 43.0707C106.578 43.1413 106.59 43.2126 106.603 43.2846C106.19 43.3672 105.595 43.3392 105.474 43.8584C105 45.0706 104.721 46.3475 104.315 47.5824C104.091 48.3874 103.768 49.1958 103.787 50.0442C103.9 50.3787 104.368 50.3094 104.637 50.4274C104.642 50.4647 104.652 50.5407 104.658 50.5786C103.602 50.5866 102.549 50.5866 101.495 50.5806C101.497 50.542 101.502 50.466 101.504 50.428C101.834 50.3807 102.248 50.382 102.469 50.0828C102.818 49.641 102.882 49.0565 103.061 48.5407C103.41 47.2292 103.815 45.933 104.154 44.6194C103.338 45.5838 102.7 46.6787 101.92 47.671C101.23 48.6333 100.534 49.593 99.873 50.5746C99.7877 50.5773 99.7032 50.58 99.6206 50.584C99.3568 48.6 99.195 46.6034 98.9165 44.6221C98.4849 46.0969 98.0016 47.5564 97.5988 49.0399C97.531 49.3857 97.3531 49.7549 97.4719 50.1115C97.6277 50.3661 98.0029 50.3254 98.2667 50.4134C98.2392 50.466 98.213 50.52 98.1888 50.5746C97.3618 50.5853 96.5369 50.5853 95.7119 50.5793C95.7253 50.544 95.7529 50.4733 95.7663 50.438C96.0449 50.3661 96.3644 50.3607 96.6121 50.1954C96.7665 50.0375 96.8974 49.8476 96.9833 49.643C97.3941 48.3115 97.7304 46.9579 98.1821 45.6397C98.4788 44.9913 98.5211 44.2662 98.6943 43.5831C98.3842 43.4565 98.0613 43.3679 97.7384 43.2852C97.7633 43.2079 97.7888 43.1306 97.8163 43.0547Z" fill="white"/>
<path d="M72.9332 43.4212C73.2246 43.3479 73.5413 43.5618 73.6789 43.6791C73.6601 43.9657 73.6091 44.3229 73.3258 44.4768C73.0077 44.6181 72.5861 44.4282 72.5291 44.0796C72.4197 43.7884 72.666 43.5072 72.9332 43.4212Z" fill="white"/>
<path d="M27.0273 44.956C27.2844 44.6794 27.428 44.2889 27.7898 44.1243C27.6831 44.6594 27.5233 45.1826 27.3851 45.7104C27.675 45.7117 27.9684 45.717 28.2604 45.7204C28.2248 45.819 28.1899 45.9183 28.1563 46.0183C27.861 46.0323 27.5676 46.0483 27.2743 46.0629C26.9259 47.4524 26.3325 48.7859 26.1278 50.2088C26.7111 50.1401 26.9501 49.5317 27.4206 49.2671C27.2716 49.8536 26.8118 50.3434 26.2708 50.6026C26.0043 50.6233 25.6331 50.7686 25.4109 50.5507C25.1713 50.2368 25.3096 49.8156 25.3935 49.4744C25.6673 48.3241 26.156 47.2358 26.3346 46.0609C26.1446 46.0569 25.764 46.0489 25.5734 46.0443C25.5787 46.0023 25.5888 45.9176 25.5935 45.8757C26.1352 45.6877 26.6561 45.3978 27.0273 44.956Z" fill="white"/>
<path d="M35.7099 45.1146C36.0099 44.7927 36.1871 44.3249 36.6241 44.1543C36.5294 44.6794 36.3757 45.1919 36.2354 45.7064C36.5073 45.7104 36.7798 45.7157 37.0537 45.721C37.0181 45.8197 36.9832 45.9183 36.949 46.0183C36.6717 46.0316 36.3965 46.0469 36.1213 46.0616C35.7817 47.4478 35.2098 48.7706 34.9554 50.1775C35.4957 50.1521 35.8146 49.6463 36.1582 49.2951C36.1878 49.3378 36.2468 49.4224 36.2764 49.4644C35.9334 49.8716 35.6367 50.3794 35.1286 50.5986C34.8486 50.6313 34.3083 50.8019 34.1922 50.424C34.1398 49.3864 34.564 48.4061 34.8795 47.4371C34.9903 46.9799 35.0856 46.5181 35.1964 46.0609C35.0064 46.0576 34.6258 46.0496 34.4352 46.0463C34.4378 45.9989 34.4425 45.905 34.4452 45.8577C34.8976 45.6737 35.3856 45.4978 35.7099 45.1146Z" fill="white"/>
<path d="M75.6229 45.2219C75.941 44.906 76.1914 44.5315 76.4599 44.1736C76.5069 44.1869 76.6009 44.2122 76.6479 44.2256C76.5331 44.7247 76.3961 45.2186 76.2572 45.7124C76.527 45.715 76.7982 45.7184 77.0714 45.723C77.0587 45.821 77.0479 45.9196 77.0372 46.0189C76.7411 46.0363 76.4512 46.0563 76.1592 46.0776C75.8242 47.1565 75.5007 48.2395 75.1892 49.3258C75.1067 49.6243 75.0322 49.9282 75.0221 50.2388C75.5564 50.0895 75.8645 49.5837 76.2975 49.2771C76.1659 49.8509 75.6665 50.2754 75.2027 50.6006C74.8489 50.7139 74.4515 50.6686 74.1394 50.4693C74.2011 49.3911 74.5784 48.3681 74.9194 47.3538C75.0154 46.9306 75.1228 46.5101 75.2335 46.0902C74.9328 46.0629 74.6361 46.0416 74.3394 46.0149C74.7476 45.7204 75.2557 45.5758 75.6229 45.2219Z" fill="white"/>
<path d="M13.9769 45.797C14.4454 45.5911 14.9865 45.5198 15.4879 45.6391C15.7805 45.7784 16.2229 45.971 16.1135 46.3868C16.1524 46.8306 15.8759 47.2205 15.5456 47.4864C14.72 48.1428 13.6527 48.4287 12.6102 48.4774C12.666 48.8606 12.5116 49.3378 12.8217 49.6516C13.0882 50.0628 13.6399 50.1468 14.0903 50.1055C14.6891 49.9742 15.1482 49.5563 15.657 49.2465C15.6731 49.2971 15.7054 49.3984 15.7215 49.4484C15.1825 49.9075 14.6193 50.4034 13.9205 50.6C13.3862 50.6386 12.7566 50.8039 12.2887 50.4487C11.5403 49.9422 11.5087 48.9212 11.7799 48.1448C12.08 47.0732 12.9573 46.2175 13.9769 45.797ZM13.9467 46.1629C13.3137 46.6814 12.8244 47.3938 12.6626 48.2002C13.356 48.1242 14.0971 47.9956 14.634 47.5131C15.1207 47.1772 15.3852 46.6194 15.3523 46.0309C14.8965 45.8943 14.3387 45.849 13.9467 46.1629Z" fill="white"/>
<path d="M29.5921 46.5048C30.0875 45.9783 30.7829 45.5251 31.5401 45.6111C31.8347 45.7124 32.0375 45.9743 32.2482 46.1922C32.3113 46.0416 32.3758 45.8923 32.4416 45.7437C32.7268 45.7117 33.0108 45.6611 33.2961 45.6291C32.9349 47.1565 32.3207 48.6173 32.0724 50.1715C32.5335 50.0688 32.8356 49.695 33.1397 49.3717C33.145 49.9582 32.551 50.3314 32.11 50.602C31.8166 50.644 31.3045 50.8026 31.1944 50.4067C31.1367 50.0182 31.34 49.633 31.3588 49.2458C30.8923 49.8102 30.3708 50.3827 29.6572 50.63C29.333 50.6366 28.9329 50.7606 28.6604 50.5233C28.1999 50.1448 28.1684 49.4657 28.2812 48.9266C28.4369 48.0009 28.9913 47.2038 29.5921 46.5048ZM31.1125 45.9503C30.7997 46.0056 30.5513 46.2255 30.3365 46.4441C29.6854 47.1905 29.2585 48.1428 29.1551 49.1272C29.1679 49.4444 29.1598 49.8782 29.5136 50.0108C29.9942 50.1481 30.4365 49.8529 30.7547 49.5257C31.5683 48.716 32.1596 47.5817 31.9958 46.4135C31.8837 46.0336 31.5092 45.7784 31.1125 45.9503Z" fill="white"/>
<path d="M38.1357 46.7907C38.8224 45.9756 39.9159 45.4331 41.0013 45.6257C41.302 45.737 41.6846 45.9163 41.7242 46.2775C41.8256 46.7907 41.4027 47.1792 41.0704 47.5031C40.2737 48.1835 39.205 48.4347 38.1774 48.4807C38.1512 48.9872 38.1122 49.669 38.6667 49.9182C39.5588 50.46 40.5052 49.7456 41.2369 49.2578C41.2517 49.3051 41.2805 49.3997 41.2946 49.447C40.6563 49.9875 39.9635 50.6306 39.0701 50.65C38.7419 50.6406 38.3821 50.7253 38.076 50.5706C37.4188 50.2774 37.0476 49.5177 37.1564 48.8206C37.2108 48.0469 37.6773 47.3858 38.1357 46.7907ZM39.3668 46.2795C38.7634 46.754 38.4237 47.4771 38.2331 48.2022C38.9735 48.1129 39.7635 47.9536 40.3233 47.4251C40.7281 47.1085 40.9187 46.6041 40.9382 46.1036C40.4475 45.8037 39.783 45.8956 39.3668 46.2795Z" fill="white"/>
<path d="M54.4638 46.5408C55.0975 46.0216 55.8714 45.5391 56.7286 45.5924C57.1501 45.5724 57.6482 45.7764 57.7657 46.2142C57.9711 46.7607 57.4985 47.1965 57.1481 47.5391C56.3252 48.1888 55.2512 48.4367 54.2181 48.4727C54.2504 48.8393 54.2423 49.2278 54.3866 49.5737C54.688 50.0062 55.2525 50.2068 55.7687 50.0835C56.3762 49.9395 56.8514 49.5044 57.4133 49.2578C57.1542 49.8063 56.5628 50.0922 56.0755 50.4054C55.3465 50.7246 54.3692 50.8632 53.7261 50.2947C53.4321 49.9662 53.3093 49.5244 53.267 49.0958C53.2703 48.1229 53.7543 47.1945 54.4638 46.5408ZM55.8318 46.0316C55.0223 46.4808 54.5343 47.3345 54.3 48.2022C55.1606 48.1255 56.1003 47.9003 56.6541 47.1819C56.9219 46.8773 57.1428 46.3495 56.8387 46.0036C56.5353 45.8437 56.1399 45.905 55.8318 46.0316Z" fill="white"/>
<path d="M58.4913 45.9676C59.1384 45.7937 59.809 45.7197 60.4721 45.6297C60.2245 46.4614 59.9701 47.2911 59.7371 48.1269C60.3426 47.2905 60.8366 46.3348 61.7025 45.7257C61.9066 45.5898 62.2664 45.4778 62.4174 45.7317C62.6873 46.1236 62.4013 46.6567 62.1006 46.9279C61.7623 47.0626 61.5945 46.6594 61.5012 46.4128C60.9615 46.6434 60.6829 47.2045 60.3386 47.643C59.6754 48.5021 59.3149 49.5383 59.0531 50.5766C58.7591 50.576 58.4712 50.58 58.1805 50.5806C58.355 49.8989 58.6477 49.2565 58.8752 48.594C58.9692 47.7563 59.4062 46.9759 59.378 46.1256C59.0827 46.0749 58.7833 46.0176 58.4913 45.9676Z" fill="white"/>
<path d="M62.8484 46.0563C63.4693 45.767 64.1653 45.7517 64.8258 45.6071C64.6077 46.3382 64.3949 47.0706 64.1949 47.807C64.6876 47.0146 65.2031 46.1742 66.0536 45.713C66.4167 45.4611 67.0389 45.5564 67.1276 46.0503C67.2423 46.7387 66.9007 47.3931 66.7973 48.0622C67.345 47.1552 67.9042 46.1695 68.8842 45.6591C69.1842 45.4985 69.6212 45.5731 69.7723 45.8943C69.9871 46.6707 69.5132 47.3678 69.4051 48.1149C69.2729 48.784 69.0131 49.4264 68.9345 50.1068C69.3138 49.9255 69.6065 49.6163 69.8891 49.3144C69.932 49.3411 70.0186 49.3937 70.0616 49.4197C69.6266 50.0135 69.095 50.8279 68.2237 50.6433C68.0881 50.54 67.9928 50.37 68.0304 50.1974C68.2237 49.1618 68.5788 48.1648 68.8399 47.1459C68.9137 46.846 68.9312 46.5361 68.9379 46.2295C68.3284 46.2682 67.931 46.7933 67.5806 47.2318C67.1403 47.8863 66.6986 48.5567 66.4496 49.3098C66.3039 49.7283 66.1972 50.1595 66.0522 50.5786C65.7602 50.5786 65.4743 50.5833 65.1856 50.5853C65.3273 49.7656 65.7475 49.0259 65.873 48.2042C65.9925 47.5251 66.3771 46.832 66.1469 46.1356C65.8421 46.2562 65.5635 46.4355 65.3474 46.682C64.7896 47.2878 64.2781 47.9609 63.9861 48.736C63.7089 49.3271 63.5975 49.9769 63.3525 50.5806C63.0719 50.5733 62.7973 50.5713 62.5201 50.562C62.841 49.3597 63.2887 48.1975 63.5807 46.9873C63.5961 46.7447 63.8458 46.4175 63.627 46.1975C63.4109 46.0196 63.1048 46.0942 62.8484 46.0563Z" fill="white"/>
<path d="M71.2275 45.9136C71.8733 45.7903 72.5338 45.7404 73.1741 45.5844C72.909 46.5414 72.6304 47.4944 72.37 48.4521C72.2297 49.0239 71.9203 49.5717 72.0122 50.1788C72.4042 50.0028 72.715 49.6923 72.9365 49.3298C72.9855 49.3391 73.0822 49.3591 73.1312 49.3684C72.9775 49.8249 72.5935 50.1561 72.2331 50.4547C71.8699 50.7373 71.3745 50.6493 70.9785 50.4807C71.055 49.7503 71.2611 49.0425 71.5249 48.3594C71.7001 47.661 71.925 46.9759 72.1028 46.2782C72.0243 46.2042 71.9478 46.1302 71.8719 46.0563C71.6511 46.0663 71.441 46.0882 71.2235 46.1082C71.2248 46.0596 71.2269 45.9623 71.2275 45.9136Z" fill="white"/>
<path d="M78.7354 46.2462C79.212 45.883 79.7685 45.4905 80.4082 45.6038C80.7545 45.6737 80.9579 45.9796 81.123 46.2622C81.1667 46.0949 81.2123 45.9283 81.26 45.763C81.5795 45.7164 81.8963 45.6437 82.2165 45.5971C81.9339 46.5687 81.609 47.5284 81.3405 48.5047C81.1533 49.0365 80.9969 49.5817 80.9761 50.1481C81.3842 50.0402 81.6553 49.697 81.9185 49.3911C81.9809 49.439 82.0433 49.487 82.1084 49.5363C81.8111 49.8969 81.5359 50.3021 81.1251 50.5467C80.8156 50.6759 80.4619 50.624 80.1377 50.6679C80.0685 50.1801 80.1309 49.6936 80.2477 49.2191C79.7759 49.7456 79.3348 50.3754 78.6314 50.6086C78.2736 50.6353 77.8427 50.7552 77.5299 50.52C77.1204 50.1288 77.0097 49.5117 77.1164 48.9739C77.3359 47.9209 77.9407 46.9666 78.7354 46.2462ZM80.0457 45.9476C79.5047 46.0789 79.0872 46.5261 78.8173 46.9893C78.3958 47.6897 78.0044 48.4741 78.0722 49.3158C78.0534 49.5803 78.1199 49.9515 78.426 50.0302C78.8167 50.1008 79.2335 49.9655 79.4953 49.6663C80.3545 48.8173 81.0875 47.6277 80.8371 46.3748C80.774 46.0283 80.3867 45.8017 80.0457 45.9476Z" fill="white"/>
<path d="M84.0074 46.1476C84.6666 45.5898 85.6077 45.4705 86.4313 45.6477C87.0643 45.9743 87.7959 45.9143 88.49 45.9303C88.4343 46.1222 88.3772 46.3142 88.3242 46.5074C88.0174 46.5094 87.718 46.5181 87.4146 46.5221C87.4744 46.908 87.5556 47.3278 87.375 47.6943C87.0367 48.3274 86.4286 48.8486 85.6889 48.9226C85.0854 48.9959 84.4471 49.1611 84.0349 49.6376C84.8028 50.1535 85.7728 50.1148 86.6152 50.434C87.471 50.7533 87.4395 52.0634 86.691 52.4713C86.2192 52.7079 85.7251 52.9565 85.1841 52.9691C84.335 53.0204 83.3825 53.0698 82.6454 52.5699C82.3353 52.374 82.1628 51.9801 82.2669 51.6223C82.483 51.0625 83.0348 50.7559 83.5409 50.4953C83.4764 50.2721 83.3536 50.0368 83.3932 49.8036C83.5953 49.3964 84.0416 49.2051 84.4336 49.0179C83.8242 48.7986 83.1918 48.2948 83.2449 47.5824C83.1999 46.9993 83.5885 46.5054 84.0074 46.1476ZM85.4123 45.8817C84.7001 46.0496 84.3497 46.7927 84.243 47.4511C84.1537 47.8843 84.2497 48.4727 84.7176 48.6527C85.1552 48.9072 85.6459 48.5674 85.997 48.3254C86.393 47.807 86.6145 47.0959 86.4588 46.4521C86.399 45.9623 85.8285 45.807 85.4123 45.8817ZM83.8651 50.6166C83.1771 50.7612 82.6817 51.7875 83.2348 52.3167C83.7785 52.7172 84.5196 52.6539 85.1566 52.6173C85.6164 52.5739 86.1292 52.468 86.444 52.1008C86.6615 51.8462 86.6172 51.361 86.2836 51.2284C85.6332 50.9938 84.9498 50.8752 84.2866 50.6839C84.1477 50.6493 84.0081 50.602 83.8651 50.6166Z" fill="white"/>
<path d="M90.1493 46.2482C90.6769 45.8237 91.3482 45.5511 92.0355 45.5984C92.4403 45.5824 92.9088 45.7637 93.0652 46.1609C93.2572 46.7 92.8779 47.1799 92.502 47.5177C91.6811 48.1608 90.6165 48.4221 89.5881 48.4754C89.5902 48.8806 89.5069 49.3444 89.7855 49.685C90.1849 50.1221 90.8971 50.2648 91.4274 49.9815C91.8717 49.8029 92.2396 49.4884 92.6504 49.2478C92.6651 49.2971 92.6947 49.3951 92.7094 49.4437C92.1503 49.9135 91.5764 50.4234 90.8481 50.6073C90.2627 50.6679 89.5882 50.7746 89.0975 50.3647C88.6766 49.9275 88.4625 49.2971 88.586 48.6953C88.7914 47.7323 89.327 46.816 90.1493 46.2482ZM91.0172 46.1056C90.2755 46.5747 89.8318 47.3758 89.6069 48.2002C90.6541 48.1515 91.8308 47.705 92.2577 46.6754C92.3329 46.4235 92.3201 46.0189 92.0066 45.939C91.6697 45.8943 91.3052 45.9136 91.0172 46.1056Z" fill="white"/>
<path d="M107.235 45.6251C107.529 45.4678 107.855 45.7257 107.904 46.0109C107.939 46.5208 107.714 46.9919 107.569 47.4691C107.378 48.3121 107.051 49.1245 106.926 49.9822C107.815 50.1361 108.304 49.2505 108.753 48.6567C109.438 47.8023 109.77 46.7447 110.082 45.7157C110.358 45.717 110.636 45.719 110.916 45.7224C110.622 46.836 110.294 47.9403 109.96 49.0425C109.846 49.4084 109.781 49.7856 109.749 50.1668C110.165 50.0688 110.42 49.7229 110.649 49.3904C110.695 49.4017 110.787 49.4244 110.833 49.4357C110.579 49.9215 110.202 50.3461 109.722 50.6206C109.473 50.6006 109.095 50.7892 108.927 50.5347C108.807 50.3967 108.824 50.2061 108.863 50.0428C109.01 49.4051 109.205 48.78 109.392 48.1528C108.779 48.9412 108.33 49.8889 107.476 50.4567C107.15 50.7193 106.708 50.6173 106.323 50.6673C106.219 50.4534 106.075 50.2401 106.079 49.9949C106.24 48.6807 106.869 47.4598 106.958 46.1356C106.571 46.2255 106.331 46.5454 106.103 46.842C106.058 46.8306 105.967 46.8087 105.922 46.7973C106.248 46.3122 106.64 45.7804 107.235 45.6251Z" fill="white"/>
<path d="M112.309 46.9773C112.232 46.2688 112.874 45.5971 113.581 45.5904C113.946 45.5444 114.269 45.7344 114.618 45.7904C114.907 45.857 115.149 45.6744 115.399 45.5704C115.289 46.1309 115.171 46.69 115.055 47.2492C114.979 47.2478 114.904 47.2465 114.831 47.2465C114.747 46.8846 114.783 46.4301 114.47 46.1675C114.124 45.8037 113.564 45.9296 113.13 46.0303C113.127 46.3308 113.019 46.6827 113.209 46.9539C113.681 47.6084 114.389 48.1468 114.604 48.9532C114.859 49.6343 114.303 50.2441 113.753 50.5533C112.911 50.8865 112 50.3221 111.163 50.6526C111.251 50.0822 111.354 49.5144 111.463 48.9479C111.535 48.9359 111.607 48.9239 111.682 48.9132C111.778 49.4157 111.817 50.0822 112.349 50.3381C112.79 50.388 113.538 50.566 113.717 49.9875C113.964 49.4704 113.625 48.9719 113.311 48.582C112.916 48.0902 112.377 47.645 112.309 46.9773Z" fill="white"/>
<path d="M117.599 46.2415C118.222 45.7437 119.048 45.4998 119.844 45.6157C120.282 45.6911 120.664 46.1082 120.541 46.5727C120.495 47.0426 120.116 47.3851 119.763 47.6623C118.957 48.1862 118.002 48.4441 117.044 48.4827C117.06 48.718 117.093 49.1878 117.11 49.4231C117.285 49.9742 117.94 50.1881 118.471 50.1075C119.084 49.9395 119.615 49.5737 120.159 49.2591C119.913 49.7929 119.36 50.0888 118.88 50.3794C118.39 50.7113 117.764 50.6573 117.205 50.6453C116.508 50.5593 116.043 49.8489 116.059 49.1845C115.964 48.0102 116.672 46.9133 117.599 46.2415ZM118.199 46.3055C117.586 46.7767 117.27 47.4864 117.066 48.2068C117.989 48.1162 119.044 47.827 119.555 46.9839C119.84 46.7087 119.716 46.3175 119.7 45.9743C119.181 45.9103 118.582 45.889 118.199 46.3055Z" fill="white"/>
<path d="M122.342 45.6337C122.626 45.4911 122.854 45.7277 123.098 45.821C123.072 46.5981 122.732 47.3025 122.565 48.0495C122.401 48.668 122.234 49.2864 122.034 49.8949C122.287 49.9275 122.573 50.0408 122.8 49.8716C123.471 49.3757 123.923 48.6527 124.358 47.9589C124.755 47.2545 124.97 46.4688 125.258 45.719C125.537 45.7157 125.827 45.7164 126.112 45.715C125.702 46.8986 125.4 48.1142 125.047 49.3144C124.968 49.5943 124.902 49.8809 124.902 50.1735C125.347 50.0208 125.577 49.585 125.922 49.2958C125.961 49.8023 125.493 50.1215 125.159 50.4207C124.894 50.6653 124.498 50.628 124.172 50.6959C124.098 50.5047 123.983 50.3087 124.024 50.0968C124.131 49.4884 124.345 48.9052 124.453 48.2975C123.883 49.0212 123.453 49.8856 122.669 50.414C122.322 50.658 121.821 50.7659 121.431 50.5853C121.117 50.2848 121.243 49.7696 121.315 49.3937C121.582 48.3401 122.007 47.3151 122.1 46.2235C122.048 46.2089 121.944 46.1802 121.892 46.1656C121.662 46.3908 121.435 46.6161 121.223 46.858C121.175 46.8426 121.078 46.8113 121.029 46.796C121.368 46.3288 121.76 45.807 122.342 45.6337Z" fill="white"/>
<path d="M126.967 45.9523C127.595 45.817 128.237 45.753 128.865 45.6111C128.682 46.3715 128.416 47.1085 128.217 47.8643C128.759 47.0872 129.205 46.1729 130.096 45.7224C130.368 45.6177 130.714 45.5211 130.975 45.7017C131.165 45.8083 131.323 46.0076 131.223 46.2522C131.223 46.882 130.95 47.4631 130.828 48.0722C131.359 47.2958 131.819 46.4461 132.565 45.843C132.816 45.6617 133.132 45.5838 133.441 45.5938C133.757 45.6624 133.978 45.9983 133.917 46.3195C133.95 46.8733 133.655 47.3651 133.548 47.8936C133.38 48.6193 133.16 49.3304 132.967 50.0495C133.447 50.0348 133.692 49.5643 133.982 49.2511C134.008 49.3398 134.129 49.4357 134.06 49.531C133.781 49.9109 133.455 50.2614 133.082 50.55C132.795 50.6913 132.455 50.624 132.149 50.612C132.127 50.2601 132.112 49.9042 132.22 49.5637C132.435 48.9119 132.573 48.2395 132.768 47.5824C132.916 47.1352 132.954 46.6647 132.99 46.1989C132.629 46.3115 132.272 46.4814 132.025 46.772C131.085 47.8723 130.5 49.2085 130.066 50.572C129.779 50.5753 129.502 50.5813 129.221 50.586C129.413 49.7023 129.837 48.8859 129.968 47.9882C130.05 47.3964 130.548 46.732 130.189 46.1442C129.56 46.4095 129.092 46.9373 128.717 47.4884C128.093 48.4234 127.735 49.499 127.454 50.5766C127.156 50.576 126.869 50.58 126.577 50.5806C126.965 49.1025 127.539 47.6717 127.765 46.1536C127.5 46.1022 127.231 46.0869 126.963 46.0809C126.964 46.0489 126.967 45.9843 126.967 45.9523Z" fill="white"/>
</svg>
