<svg width="194" height="53" viewBox="0 0 194 53" fill="none" xmlns="http://www.w3.org/2000/svg">
<path fill-rule="evenodd" clip-rule="evenodd" d="M1.07511 0.730466L51.9453 0.90143L51.773 52.1696L0.902811 51.9987L1.07511 0.730466ZM41.2122 7.69376C41.6565 6.75592 42.5444 5.97724 43.7134 5.98117C45.2467 5.90856 46.6115 7.09647 46.7228 8.85733C46.722 9.10305 46.5984 9.95749 46.5144 10.1594L40.5662 19.8346C39.9613 20.8559 40.0686 21.6348 40.3125 22.4941L49.1764 45.5826L12.4928 45.4593C9.22934 45.4483 6.69488 42.7834 6.70602 39.4677L6.68613 8.96961C6.82312 4.92033 12.4254 4.93705 12.6158 8.86612L12.5192 37.6017C12.5161 38.5068 13.3122 39.4899 14.2807 39.4932L41.1866 39.5836L34.3139 22.8785C34.0782 22.3458 33.9913 21.7684 33.9935 21.1153C33.9959 20.3843 34.3238 19.2812 34.7713 18.2998L41.2122 7.69376ZM26.3033 8.91213C26.3099 6.94793 27.7505 5.95095 29.1895 5.94607C30.6285 5.94119 32.0693 6.92841 32.0625 8.93148L31.9929 29.6587C31.9769 34.3989 28.4665 37.5388 24.1604 37.5243C19.9686 37.5102 16.4671 34.3468 16.4831 29.6066L16.5527 8.87936C16.5659 4.95096 22.3319 4.97034 22.3187 8.89873L22.2496 29.4614C22.2404 32.2016 26.2242 32.4607 26.2342 29.4748L26.3033 8.91213Z" fill="white"/>
<path d="M61.8912 6.95979L61.8457 20.5241C61.8343 23.9144 61.4855 25.7981 58.7465 25.7889C58.2344 25.7872 57.8921 25.7861 57.3807 25.5977L57.361 31.4359C58.3838 31.8188 59.0686 31.8211 59.9261 31.824C67.6251 31.8498 67.9871 26.0097 67.9985 22.6163L68.0314 12.8218L72.4794 12.8367L72.4167 31.4865L78.5734 31.5072L78.6557 7.01614L61.8912 6.95979Z" fill="white"/>
<path d="M80.71 7.02304L89.0343 24.7616L85.9331 31.5319L92.605 31.5543L102.61 7.09664L95.9384 7.07422L92.3101 17.4228L88.0666 7.04776L80.71 7.02304Z" fill="white"/>
<path d="M104.409 31.594L110.569 31.6147L110.605 21.0643L116.899 31.636L124.767 31.6624L116.087 19.0112L124.68 7.17081L117.323 7.14609L110.617 17.4843L110.652 7.12367L104.492 7.10296L104.409 31.594Z" fill="white"/>
<path d="M134.861 32.4523C143.072 32.4799 146.856 26.0852 146.878 19.4912C146.9 13.087 143.158 6.66699 134.947 6.6394C126.906 6.61237 123.121 13.0071 123.1 19.4113C123.078 26.0053 126.819 32.4253 134.861 32.4523ZM134.88 26.6111C132.141 26.6019 129.413 24.1417 129.429 19.4326C129.445 14.7235 132.189 12.4715 134.928 12.4807C137.836 12.4904 140.565 14.7609 140.549 19.47C140.533 24.1791 137.789 26.6208 134.88 26.6111Z" fill="white"/>
<path d="M150.001 7.25593L149.919 31.747L155.906 31.7671L164.508 17.1025L164.459 31.7958L170.449 31.816L170.532 7.32493L164.541 7.3048L155.939 21.9725L155.988 7.27606L150.001 7.25593ZM160.44 5.97221C163.007 5.98083 165.576 5.04702 166.786 2.22372L163.197 0.706231C162.676 2.58938 161.136 2.77083 160.451 2.76853C159.939 2.76681 158.228 2.57443 157.892 0.6884L154.296 2.18175C155.311 5.01252 158.047 5.96416 160.44 5.97221Z" fill="white"/>
<path d="M177.034 7.34676L176.988 20.9111C176.977 24.3014 176.625 26.1851 173.889 26.1759C173.377 26.1742 173.035 26.173 172.52 25.9847L172.501 31.8228C173.526 32.2058 174.211 32.2081 175.066 32.2109C182.765 32.2368 183.127 26.3967 183.138 23.0033L183.171 13.2087L187.619 13.2237L187.556 31.8734L193.716 31.8941L193.798 7.40311L177.034 7.34676Z" fill="white"/>
<path d="M57.3637 45.1808L58.2304 45.1837L58.2457 40.6395L63.3074 40.6565L63.2922 45.2007L64.1589 45.2037L64.1888 36.2956L63.3221 36.2926L63.3098 39.9411L58.2481 39.9241L58.2604 36.2756L57.3936 36.2727L57.3637 45.1808Z" fill="white"/>
<path d="M66.3644 45.2111L71.1115 45.227L71.1139 44.5116L67.2336 44.4986L67.2467 40.5826L70.9728 40.5952L70.9753 39.8798L67.2491 39.8673L67.2587 37.0244L71.139 37.0374L71.1415 36.3189L66.3943 36.303L66.3644 45.2111Z" fill="white"/>
<path d="M76.8243 45.2461L77.6818 45.249L77.6859 44.0235L78.0468 44.0247C80.9031 44.0343 82.0902 42.3338 82.0962 40.5485C82.1032 38.4583 80.5748 37.069 78.0702 37.0606L77.7093 37.0594L77.7129 35.9894L76.8554 35.9866L76.8518 37.0565L76.5032 37.0554C73.9832 37.0469 72.4486 38.4259 72.4416 40.516C72.4356 42.3014 73.6112 44.0098 76.4798 44.0195L76.8284 44.0206L76.8243 45.2461ZM77.7069 37.7748C80.5723 37.8218 81.197 39.1738 81.1924 40.5454C81.1852 42.6854 79.7737 43.2374 77.6883 43.305L77.7069 37.7748ZM76.8308 43.3022C74.7459 43.2205 73.3381 42.659 73.3453 40.5191C73.3499 39.1474 73.9806 37.7996 76.8494 37.7719L76.8308 43.3022Z" fill="white"/>
<path d="M85.2107 45.2744L86.0435 45.2772L86.071 37.0876L88.4214 37.0955L88.4239 36.377L82.8933 36.3584L82.8909 37.0769L85.2382 37.0848L85.2107 45.2744Z" fill="white"/>
<path d="M89.4185 45.2885L90.3932 45.2918L92.7568 41.3869L93.5032 41.3894L93.4901 45.3022L94.3599 45.3052L94.3899 36.3971L92.351 36.3902C89.6767 36.3812 89.2851 38.1684 89.2825 38.9584C89.2774 40.4638 90.4434 41.3791 91.8192 41.334L89.4185 45.2885ZM93.5056 40.6709L92.2533 40.6667C91.5439 40.6643 90.1345 40.5756 90.1402 38.8742C90.1458 37.2226 91.6391 37.1063 92.3486 37.1087L93.5176 37.1126L93.5056 40.6709Z" fill="white"/>
<path d="M96.5777 45.3126L97.4445 45.3155L97.4598 40.7713L102.521 40.7883L102.506 45.3325L103.373 45.3354L103.403 36.4274L102.536 36.4244L102.524 40.0729L97.4622 40.0559L97.4744 36.4074L96.6077 36.4045L96.5777 45.3126Z" fill="white"/>
<path d="M104.637 45.3396L105.507 45.3426L106.732 42.454L110.455 42.4665L111.664 45.3632L112.53 45.3662L108.597 36.2146L104.637 45.3396ZM107.049 41.7521L108.591 38.1119L110.146 41.7625L107.049 41.7521Z" fill="white"/>
<path d="M113.533 45.3696L114.508 45.3729L116.872 41.4679L117.618 41.4704L117.605 45.3833L118.472 45.3862L118.502 36.4781L116.466 36.4713C113.792 36.4623 113.4 38.2494 113.397 39.0395C113.392 40.5449 114.558 41.4601 115.931 41.415L113.533 45.3696ZM117.621 40.7519L116.368 40.7477C115.656 40.7453 114.246 40.6566 114.252 38.9552C114.258 37.3036 115.754 37.1874 116.463 37.1898L117.632 37.1937L117.621 40.7519Z" fill="white"/>
<path d="M123.619 45.4035L124.486 45.4064L124.501 41.0923L128.45 45.4197L129.582 45.4235L125.319 40.8151L129.541 36.5152L128.48 36.5116L124.502 40.6538L124.516 36.4983L123.649 36.4954L123.619 45.4035Z" fill="white"/>
<path d="M135.174 45.7222C137.802 45.731 139.964 43.8316 139.974 41.023C139.983 38.2174 137.834 36.3128 135.206 36.304C132.615 36.2953 130.452 38.1854 130.443 40.9909C130.433 43.7996 132.583 45.7135 135.174 45.7222ZM135.176 44.9695C133.02 44.9622 131.339 43.3267 131.346 40.994C131.354 38.6612 133.047 37.0028 135.203 37.0101C137.362 37.0173 139.078 38.6871 139.07 41.0199C139.062 43.3527 137.336 44.9767 135.176 44.9695Z" fill="white"/>
<path d="M141.152 45.4623L141.985 45.4651L142.824 38.8926L146.055 45.88L149.296 38.9143L150.144 45.4925L150.924 45.4952L149.74 36.2315L146.061 44.1787L142.399 36.2068L141.152 45.4623Z" fill="white"/>
<path d="M152.583 36.5926L152.553 45.5007L153.42 45.5036L153.448 37.314L158.509 37.3311L158.482 45.5207L159.349 45.5236L159.378 36.6155L152.583 36.5926Z" fill="white"/>
<path d="M160.616 45.5278L161.482 45.5307L162.707 42.6421L166.434 42.6546L167.639 45.5514L168.506 45.5543L164.573 36.4027L160.616 45.5278ZM163.024 41.9402L164.567 38.3L166.121 41.9506L163.024 41.9402Z" fill="white"/>
<path d="M169.736 45.5585L170.603 45.5614L170.618 41.0171L175.68 41.0342L175.665 45.5784L176.535 45.5813L176.565 36.6732L175.695 36.6703L175.682 40.3188L170.621 40.3018L170.633 36.6533L169.766 36.6504L169.736 45.5585Z" fill="white"/>
<path d="M178.767 36.6805L178.736 45.9899L184.813 38.5609L184.789 45.609L185.644 45.6119L185.675 36.3523L179.614 43.7316L179.637 36.6835L178.767 36.6805Z" fill="white"/>
<path d="M187.596 45.6185L188.57 45.6218L190.934 41.7168L191.68 41.7193L191.667 45.6322L192.537 45.6351L192.567 36.727L190.531 36.7202C187.854 36.7112 187.462 38.4983 187.46 39.2884C187.455 40.7938 188.621 41.7091 189.996 41.6639L187.596 45.6185ZM191.683 41.0008L190.43 40.9966C189.721 40.9943 188.312 40.9055 188.317 39.2042C188.323 37.5526 189.816 37.4363 190.529 37.4387L191.695 37.4426L191.683 41.0008Z" fill="white"/>
</svg>
