<svg width="144" height="69" viewBox="0 0 144 69" fill="none" xmlns="http://www.w3.org/2000/svg">
<path d="M44.4812 68.9995H49.2734V48.0792H53.6215V45.1176H44.4812V68.9995ZM56.2324 45.1181L53.733 69H58.4237L58.8689 62.6539H61.1282L61.5733 69H66.2636L63.7641 45.1181H56.2324ZM59.0394 60.027L59.8612 48.0782H60.1348L60.9561 60.027H59.0394ZM75.8653 45.1181H71.8922C68.537 45.1181 68.3314 47.7106 68.3314 49.3831V52.7602H73.1236V48.8643C73.1236 48.2507 73.6033 48.0797 73.8769 48.0797C74.3226 48.0797 74.6302 48.4556 74.6302 48.8643V53.6131C74.6302 55.0801 74.1505 55.3866 72.7815 55.3866H70.7618V58.0136H72.713C74.4926 58.0136 74.6302 58.8321 74.6302 59.5828V65.137C74.6302 65.5473 74.3221 65.9221 73.8769 65.9221C73.6033 65.9221 73.1236 65.7511 73.1236 65.137V60.64H68.3314V64.7345C68.3314 66.4059 68.537 68.9995 71.8922 68.9995H75.8653C79.2215 68.9995 79.4266 66.4059 79.4266 64.7345V59.9237C79.4266 59.0714 79.3926 56.6144 76.1744 56.6832V56.4439C77.6119 56.5122 79.4266 55.7954 79.4266 53.2028V49.382C79.4261 47.7101 79.2215 45.1181 75.8653 45.1181ZM82.5778 68.9995H87.3721V48.0792H88.8798V68.9995H93.672V45.1176H82.5778V68.9995ZM104.353 45.1181H96.8222V69H101.616V60.8798H104.353C107.709 60.8798 107.914 58.2868 107.914 56.6154V49.3831C107.914 47.7101 107.709 45.1181 104.353 45.1181ZM103.121 57.0585C103.121 57.8092 102.745 58.2529 102.232 58.2529H101.616V48.0792H102.232C102.745 48.0792 103.121 48.5229 103.121 49.2731V57.0585ZM118.597 45.1181H114.626C111.272 45.1181 111.065 47.7106 111.065 49.3831V64.735C111.065 66.4064 111.272 69 114.626 69H118.597C121.952 69 122.157 66.4064 122.157 64.735V49.3831C122.157 47.7101 121.952 45.1181 118.597 45.1181ZM117.365 65.137C117.365 65.5473 117.058 65.9221 116.613 65.9221C116.338 65.9221 115.859 65.7511 115.859 65.137V48.8638C115.859 48.2502 116.338 48.0792 116.613 48.0792C117.058 48.0792 117.365 48.4551 117.365 48.8638V65.137ZM137.769 45.1181L134.655 61.9037L131.538 45.1181H125.308V69H130.101V54.0228H130.273L132.737 69H136.571L139.036 54.0228H139.207V69H144V45.1181H137.769ZM28.7497 36.6653C29.8691 39.3439 31.5483 42.2096 32.6406 43.6193C34.2408 41.5465 37.9214 35.3662 39.0675 27.2872C39.7068 22.797 39.734 18.8652 38.2677 12.4612C36.8004 6.0578 33.1224 0.850803 32.6149 0C31.8151 1.19488 28.8805 5.79192 27.3891 10.8947C25.7617 16.5802 25.5221 21.6267 26.0834 26.597C26.6426 31.5662 28.7497 36.6653 28.7497 36.6653ZM32.6155 42.0251C31.8951 40.6707 30.7757 38.0969 30.669 34.116C30.6412 30.264 32.1886 26.9682 32.6406 26.2779C33.0434 26.9682 34.3747 29.8391 34.5332 33.7709C34.642 37.6188 33.3619 40.6436 32.6155 42.0251ZM27.4429 20.8311C27.5716 17.5139 28.349 14.1081 28.7764 12.541C30.4017 7.30637 32.243 3.95999 32.5888 3.42876C32.9351 3.96051 35.254 8.07898 36.4562 12.4101C37.653 16.7392 37.8942 20.8848 37.8419 23.3298C37.7875 25.7733 37.494 28.3497 37.1205 29.8917C37.2549 27.2356 36.9353 23.4893 36.3217 20.5658C35.7081 17.6427 33.975 12.7542 32.5888 10.4948C31.3098 12.6479 29.7352 16.8732 28.9103 20.5386C28.0811 24.2067 28.0571 28.6426 28.0571 29.9725C27.8379 28.8507 27.2855 24.8526 27.4429 20.8311ZM23.948 52.573C23.9575 52.5626 23.9658 52.5522 23.9758 52.5418C26.6044 49.9221 30.8678 49.9221 33.4974 52.5418C36.1261 55.1619 36.1261 59.4113 33.4974 62.0314C33.4865 62.0419 33.4744 62.0507 33.4629 62.0622C33.4629 62.0627 33.4629 62.0638 33.4624 62.0648C33.4498 62.0768 33.4357 62.0867 33.4226 62.0992C30.8013 64.6944 27.3739 65.9925 23.9475 65.9925C20.506 65.9925 17.0639 64.684 14.4384 62.0679C9.81095 57.4563 9.26273 50.3225 12.7901 45.1108C13.2661 44.407 13.8143 43.7366 14.4384 43.1146C17.0644 40.4986 20.506 39.1932 23.9475 39.1932V21.256C10.7217 21.256 0 31.9406 0 45.1108C0 58.2899 10.7217 68.975 23.9475 68.975C30.8432 68.975 37.0551 66.0691 41.4252 61.4215V45.1108H23.9475V52.573H23.948Z" fill="white"/>
</svg>
