<svg width="141" height="95" viewBox="0 0 141 95" fill="none" xmlns="http://www.w3.org/2000/svg">
<path d="M102.95 72.848C101.907 72.848 101.028 72.1317 101.028 70.9194C101.028 69.8724 101.742 68.9907 102.95 68.9907C104.103 68.9907 104.871 69.8724 104.871 70.9194C104.871 72.1317 104.103 72.848 102.95 72.848ZM102.95 66.511C99.9299 66.511 98.118 68.5499 98.118 71.1398C98.118 73.5093 99.9299 75.1073 102.016 75.1073C102.456 75.1073 102.73 75.0522 103.114 74.9971L100.204 79.2952H103.718L105.475 76.6502C106.848 74.5563 107.727 72.9031 107.727 71.0847C107.727 68.3295 105.97 66.511 102.95 66.511ZM92.5724 66.7865H96.91V79.2952H93.7804V69.652H91.09L92.5724 66.7865ZM117.829 70.4785C117.829 68.3295 116.127 66.4559 113.217 66.4559C110.362 66.4559 108.55 68.2193 108.55 71.0847V71.1398H111.57V70.9745C111.57 69.652 112.229 68.9356 113.272 68.9356C114.206 68.9356 114.755 69.5418 114.755 70.4234C114.755 71.0296 114.425 71.6357 113.766 72.4623L108.111 79.185H117.72V76.5951H113.876L116.127 74.1154C117.225 72.848 117.829 71.8011 117.829 70.4785ZM127.822 75.1624C127.822 77.6421 125.956 79.6259 122.716 79.6259C121.289 79.6259 119.916 79.1299 118.982 78.5238L119.312 75.7135C120.245 76.4849 121.398 76.9258 122.496 76.9258C123.924 76.9258 124.638 76.0992 124.638 75.2726C124.638 74.2256 123.595 73.4542 121.838 73.4542C121.179 73.4542 120.245 73.5644 119.422 73.8399L120.136 66.7865H126.999V69.3214H122.442L122.222 71.1949C125.022 70.6439 127.822 72.1868 127.822 75.1624ZM57.3224 36.2036H63.0327L60.1776 46.1224L64.625 44.9652L67.1507 36.2036H72.4766L68.139 51.0818L75.2769 41.5487L76.8692 36.2036H81.9755L78.9007 46.7285C78.7909 47.1143 78.132 49.3736 78.6262 49.3736C79.1752 49.3736 80.5479 46.949 82.0853 44.1937C83.7325 41.2181 85.215 38.022 85.8189 36.2036H91.035L88.5643 45.1856L95.2079 36.2587H141L30.4731 83.6485L32.6145 76.1543L119.367 40.5017H102.456L100.808 46.0673L95.4276 47.7755L97.5689 40.5017H94.8785L87.3563 50.2552L82.6343 51.8532C82.9089 49.4838 83.2932 47.1143 83.8423 44.855L81.7009 48.9327C79.9988 52.1288 78.5164 54.6636 75.9357 54.6636C74.014 54.6636 73.1355 52.9002 73.1355 50.5307C73.1355 49.7042 73.2453 48.8225 73.465 47.8857L66.382 57.3086L60.507 59.2372L63.4171 48.9327L58.9696 50.0899L55.8949 60.8353L49.5257 62.9292L52.3808 53.0104L45.9568 61.221C43.2114 64.7477 40.4112 66.6212 38.215 66.6212C33.8773 66.6212 33.3283 59.4577 33.7126 56.5922C31.3516 57.6943 30.528 58.08 29.7593 58.5209C30.8026 73.8399 15.264 95 5.38084 95C2.30607 95 0 92.6305 0 87.2854C0 79.3503 5.9299 67.8335 21.7979 58.7413C21.3586 55.6003 20.2605 53.0104 18.3388 51.3573V51.0267C23.7196 46.8939 27.8376 42.21 27.8376 38.022C27.8376 36.0934 26.3551 35.3219 24.7628 35.3219C21.7979 35.3219 17.8446 39.0139 15.6484 42.1549H14.5502L16.3072 36.1485C20.3703 30.7483 26.8493 28.8196 30.4182 28.8196C34.0421 28.8196 37.1168 30.1972 37.1168 34.5505C37.1168 39.7303 32.6694 45.0754 26.0257 49.098C27.5631 50.8063 28.5514 52.79 29.1554 54.9942C30.7477 54.1676 32.3949 53.3411 34.2068 52.5145C36.1285 43.1468 42.7722 35.9281 48.7021 35.9281C51.6671 35.9281 53.0397 37.6914 53.0397 40.116C53.0397 45.7367 47.8785 50.0899 40.6308 53.8921C40.4112 55.2146 40.4661 55.931 40.4661 56.7024C40.4661 59.2372 41.0152 60.4495 42.0035 60.4495C42.6624 60.4495 43.4311 59.8985 44.3096 58.8515L54.0829 47.2245L57.3224 36.2036ZM7.5222 85.5771C7.5222 86.7895 7.90654 88.7732 9.27921 88.7732C14.7699 88.7732 21.6881 74.1705 22.0175 62.7639C12.4089 69.3765 7.5222 78.9095 7.5222 85.5771ZM47.1098 41.2732C47.1098 40.3915 46.7804 39.7854 46.2313 39.7854C44.7488 39.7854 42.6075 44.4693 41.3995 49.8144C45.4077 47.2245 47.1098 43.9182 47.1098 41.2732Z" fill="#F9FDFF"/>
<path d="M65.1192 28.8747L68.6881 17.8538L59.354 11.0209H70.8843L74.4533 0L78.0222 11.0209H89.6075L80.2185 17.8538L83.7874 28.8747L74.4533 22.0418L65.1192 28.8747Z" fill="#F9FDFF"/>
</svg>
