<svg width="193" height="53" viewBox="0 0 193 53" fill="none" xmlns="http://www.w3.org/2000/svg">
<path d="M60.9884 6.79842L60.9428 20.3627C60.9314 23.753 60.5827 25.6368 57.8437 25.6276C57.3316 25.6258 56.9892 25.6247 56.4778 25.4363L56.4582 31.2745C57.481 31.6574 58.1658 31.6597 59.0233 31.6626C66.7223 31.6885 67.0843 25.8484 67.0957 22.4549L67.1286 12.6604L71.5765 12.6753L71.5139 31.3251L77.6706 31.3458L77.7529 6.85476L60.9884 6.79842Z" fill="white"/>
<path d="M79.8072 6.86167L88.1314 24.6003L85.0303 31.3705L91.7021 31.393L101.707 6.93527L95.0356 6.91285L91.4072 17.2614L87.1638 6.88639L79.8072 6.86167Z" fill="white"/>
<path d="M103.507 31.4326L109.666 31.4533L109.702 20.903L115.996 31.4746L123.865 31.501L115.184 18.8499L123.777 7.00944L116.421 6.98472L109.714 17.3229L109.749 6.96229L103.589 6.94159L103.507 31.4326Z" fill="white"/>
<path d="M133.958 32.291C142.169 32.3186 145.953 25.9238 145.976 19.3299C145.997 12.9256 142.256 6.50562 134.044 6.47803C126.003 6.451 122.218 12.8457 122.197 19.25C122.175 25.8439 125.916 32.2639 133.958 32.291ZM133.977 26.4497C131.238 26.4405 128.511 23.9803 128.526 19.2712C128.542 14.5621 131.286 12.3101 134.025 12.3193C136.934 12.3291 139.662 14.5995 139.646 19.3086C139.63 24.0177 136.886 26.4595 133.977 26.4497Z" fill="white"/>
<path d="M149.098 7.09456L149.016 31.5856L155.003 31.6057L163.606 16.9411L163.556 31.6345L169.546 31.6546L169.629 7.16356L163.639 7.14343L155.036 21.8112L155.085 7.11468L149.098 7.09456ZM159.537 5.81083C162.104 5.81946 164.673 4.88564 165.883 2.06235L162.294 0.544857C161.773 2.42801 160.233 2.60946 159.548 2.60716C159.036 2.60543 157.325 2.41306 156.989 0.527027L153.393 2.02038C154.408 4.85114 157.144 5.80279 159.537 5.81083Z" fill="white"/>
<path d="M176.131 7.18539L176.085 20.7497C176.074 24.14 175.722 26.0237 172.986 26.0145C172.474 26.0128 172.132 26.0117 171.617 25.8233L171.598 31.6615C172.624 32.0444 173.308 32.0467 174.163 32.0496C181.862 32.0754 182.224 26.2353 182.235 22.8419L182.268 13.0474L186.716 13.0623L186.653 31.7121L192.813 31.7328L192.895 7.24173L176.131 7.18539Z" fill="white"/>
<path d="M56.4608 45.0194L57.3276 45.0224L57.3429 40.4781L62.4046 40.4951L62.3893 45.0394L63.2561 45.0423L63.286 36.1342L62.4193 36.1313L62.407 39.7797L57.3453 39.7627L57.3575 36.1143L56.4908 36.1113L56.4608 45.0194Z" fill="white"/>
<path d="M65.4616 45.0497L70.2087 45.0656L70.2111 44.3503L66.3307 44.3372L66.3439 40.4213L70.07 40.4338L70.0724 39.7184L66.3463 39.7059L66.3559 36.863L70.2362 36.8761L70.2386 36.1576L65.4915 36.1416L65.4616 45.0497Z" fill="white"/>
<path d="M75.9215 45.0848L76.779 45.0876L76.7831 43.8622L77.144 43.8634C80.0002 43.873 81.1874 42.1725 81.1934 40.3871C81.2004 38.2969 79.672 36.9077 77.1674 36.8993L76.8065 36.898L76.8101 35.8281L75.9526 35.8252L75.949 36.8952L75.6004 36.894C73.0803 36.8855 71.5458 38.2645 71.5387 40.3547C71.5327 42.14 72.7084 43.8485 75.577 43.8581L75.9256 43.8593L75.9215 45.0848ZM76.8041 37.6134C79.6695 37.6604 80.2942 39.0124 80.2896 40.3841C80.2824 42.524 78.8709 43.076 76.7855 43.1437L76.8041 37.6134ZM75.928 43.1408C73.8431 43.0591 72.4353 42.4976 72.4425 40.3577C72.4471 38.986 73.0778 37.6382 75.9466 37.6105L75.928 43.1408Z" fill="white"/>
<path d="M84.3078 45.113L85.1407 45.1158L85.1682 36.9262L87.5186 36.9341L87.521 36.2156L81.9905 36.197L81.988 36.9155L84.3354 36.9234L84.3078 45.113Z" fill="white"/>
<path d="M88.5157 45.1272L89.4904 45.1304L91.854 41.2255L92.6004 41.228L92.5873 45.1409L93.4571 45.1438L93.487 36.2357L91.4482 36.2288C88.7739 36.2198 88.3823 38.007 88.3796 38.797C88.3746 40.3025 89.5406 41.2177 90.9164 41.1726L88.5157 45.1272ZM92.6028 40.5095L91.3505 40.5053C90.6411 40.5029 89.2317 40.4142 89.2374 38.7128C89.243 37.0612 90.7363 36.9449 91.4457 36.9473L92.6148 36.9513L92.6028 40.5095Z" fill="white"/>
<path d="M95.6749 45.1512L96.5417 45.1541L96.5569 40.6099L101.619 40.6269L101.603 45.1712L102.47 45.1741L102.5 36.266L101.633 36.2631L101.621 39.9115L96.5593 39.8945L96.5716 36.2461L95.7049 36.2431L95.6749 45.1512Z" fill="white"/>
<path d="M103.734 45.1783L104.604 45.1812L105.829 42.2926L109.552 42.3051L110.761 45.2019L111.627 45.2048L107.695 36.0532L103.734 45.1783ZM106.146 41.5907L107.688 37.9505L109.243 41.6011L106.146 41.5907Z" fill="white"/>
<path d="M112.631 45.2082L113.605 45.2115L115.969 41.3065L116.715 41.3091L116.702 45.2219L117.569 45.2248L117.599 36.3167L115.563 36.3099C112.889 36.3009 112.497 38.0881 112.494 38.8781C112.489 40.3835 113.655 41.2988 115.028 41.2536L112.631 45.2082ZM116.718 40.5906L115.465 40.5864C114.753 40.584 113.343 40.4952 113.349 38.7939C113.355 37.1423 114.851 37.026 115.561 37.0284L116.73 37.0323L116.718 40.5906Z" fill="white"/>
<path d="M122.717 45.2421L123.583 45.245L123.598 40.9309L127.547 45.2583L128.679 45.2622L124.416 40.6538L128.638 36.3538L127.577 36.3503L123.599 40.4924L123.613 36.3369L122.747 36.334L122.717 45.2421Z" fill="white"/>
<path d="M134.271 45.5608C136.899 45.5697 139.062 43.6702 139.071 40.8616C139.08 38.056 136.931 36.1515 134.303 36.1426C131.712 36.1339 129.549 38.024 129.54 40.8296C129.53 43.6382 131.68 45.5521 134.271 45.5608ZM134.274 44.8081C132.117 44.8009 130.436 43.1654 130.444 40.8326C130.451 38.4998 132.144 36.8414 134.3 36.8487C136.46 36.8559 138.175 38.5258 138.167 40.8585C138.159 43.1913 136.433 44.8154 134.274 44.8081Z" fill="white"/>
<path d="M140.249 45.301L141.082 45.3037L141.922 38.7312L145.152 45.7187L148.393 38.7529L149.241 45.3312L150.021 45.3338L148.837 36.0701L145.158 44.0173L141.496 36.0455L140.249 45.301Z" fill="white"/>
<path d="M151.68 36.4313L151.65 45.3394L152.517 45.3423L152.545 37.1527L157.607 37.1697L157.579 45.3593L158.446 45.3622L158.476 36.4541L151.68 36.4313Z" fill="white"/>
<path d="M159.713 45.3664L160.58 45.3693L161.805 42.4807L165.531 42.4933L166.736 45.39L167.603 45.3929L163.67 36.2413L159.713 45.3664ZM162.122 41.7789L163.664 38.1387L165.218 41.7893L162.122 41.7789Z" fill="white"/>
<path d="M168.833 45.3971L169.7 45.4L169.715 40.8558L174.777 40.8728L174.762 45.417L175.632 45.42L175.662 36.5119L174.792 36.5089L174.78 40.1574L169.718 40.1404L169.73 36.4919L168.863 36.489L168.833 45.3971Z" fill="white"/>
<path d="M177.865 36.5192L177.833 45.8285L183.91 38.3995L183.887 45.4476L184.741 45.4505L184.772 36.1909L178.711 43.5702L178.734 36.5221L177.865 36.5192Z" fill="white"/>
<path d="M186.693 45.4571L187.668 45.4604L190.031 41.5555L190.778 41.558L190.764 45.4708L191.634 45.4737L191.664 36.5656L189.628 36.5588C186.951 36.5498 186.559 38.337 186.557 39.127C186.552 40.6324 187.718 41.5477 189.094 41.5025L186.693 45.4571ZM190.78 40.8395L189.528 40.8353C188.818 40.8329 187.409 40.7442 187.415 39.0428C187.42 37.3912 188.913 37.2749 189.626 37.2773L190.792 37.2812L190.78 40.8395Z" fill="white"/>
<rect y="1" width="51" height="51" fill="white"/>
<path fill-rule="evenodd" clip-rule="evenodd" d="M0.172302 0.569092L51.0425 0.740057L50.8702 52.0082L-7.91394e-08 51.8373L0.172302 0.569092ZM40.3094 7.53239C40.7536 6.59454 41.6416 5.81587 42.8106 5.8198C44.3439 5.74719 45.7087 6.9351 45.82 8.69596C45.8192 8.94168 45.6956 9.79612 45.6116 9.99801L39.6634 19.6732C39.0585 20.6945 39.1658 21.4734 39.4097 22.3327L48.2736 45.4212L11.59 45.2979C8.32653 45.2869 5.79207 42.622 5.80321 39.3064L5.78332 8.80824C5.92031 4.75896 11.5226 4.77567 11.713 8.70475L11.6164 37.4403C11.6133 38.3455 12.4094 39.3286 13.3779 39.3318L40.2838 39.4223L33.4111 22.7171C33.1754 22.1844 33.0885 21.6071 33.0907 20.9539C33.0931 20.2229 33.421 19.1198 33.8685 18.1384L40.3094 7.53239ZM25.4005 8.75075C25.4071 6.78655 26.8477 5.78958 28.2867 5.7847C29.7257 5.77981 31.1664 6.76703 31.1597 8.77011L31.0901 29.4973C31.0741 34.2375 27.5636 37.3774 23.2576 37.3629C19.0657 37.3488 15.5643 34.1854 15.5802 29.4452L15.6499 8.71798C15.6631 4.78959 21.4291 4.80897 21.4159 8.73736L21.3468 29.3C21.3376 32.0402 25.3213 32.2994 25.3314 29.3134L25.4005 8.75075Z" fill="#DF0033"/>
</svg>
