<svg width="8" height="16" viewBox="0 0 8 16" fill="none" xmlns="http://www.w3.org/2000/svg">
<path d="M7.67183 0.00345019L5.5816 0C3.2333 0 2.4303 1.8224 2.4303 3.34577V5.30381H0.328669C0.147063 5.30381 0 5.45527 0 5.6421V7.63314C0 7.81997 0.14723 7.97126 0.328669 7.97126H2.4303V15.6619C2.4303 15.8487 2.57737 16 2.75897 16H4.78642C4.96803 16 5.11509 15.8485 5.11509 15.6619V7.97126H7.5724C7.754 7.97126 7.90106 7.81997 7.90106 7.63314L7.90207 5.6421C7.90207 5.55239 7.86736 5.46648 7.80582 5.403C7.74428 5.33951 7.66043 5.30381 7.57323 5.30381H5.11509V3.63231C5.11509 3.20077 5.29267 2.47649 6.26342 2.47649L7.6715 2.47597C7.85294 2.47597 8 2.32451 8 2.13785V0.34157C8 0.155087 7.8531 0.00379521 7.67183 0.00345019Z" fill="white"/>
</svg>
