<svg width="45" height="45" viewBox="0 0 45 45" fill="none" xmlns="http://www.w3.org/2000/svg">
<rect opacity="0.2" x="0.5" y="0.5" width="44" height="44" stroke="#595C64"/>
<g clip-path="url(#clip0_4101:604)">
<path d="M28.731 25.4836L26.8778 23.6302C26.5086 23.2626 25.8974 23.2737 25.5154 23.6559L24.5817 24.5893C24.5227 24.5568 24.4617 24.5228 24.3975 24.4868C23.8079 24.1601 23.0009 23.7124 22.1518 22.8626C21.3001 22.011 20.8519 21.2028 20.5242 20.6128C20.4897 20.5503 20.4565 20.4901 20.4238 20.4328L21.0504 19.8072L21.3585 19.4987C21.7411 19.116 21.7516 18.5049 21.3834 18.1362L19.5301 16.2826C19.1619 15.9144 18.5503 15.9256 18.1678 16.3082L17.6455 16.8335L17.6597 16.8477C17.4846 17.0712 17.3382 17.3289 17.2293 17.6069C17.1289 17.8714 17.0664 18.1239 17.0379 18.3769C16.7932 20.4055 17.7202 22.2595 20.2361 24.7754C23.7137 28.2529 26.5163 27.9902 26.6372 27.9773C26.9005 27.9459 27.1529 27.883 27.4093 27.7834C27.6849 27.6757 27.9424 27.5296 28.1657 27.3548L28.1772 27.365L28.7063 26.8468C29.0881 26.4642 29.0991 25.8529 28.731 25.4836Z" fill="#202020"/>
</g>
<defs>
<clipPath id="clip0_4101:604">
<rect width="12" height="12" fill="white" transform="translate(17 16)"/>
</clipPath>
</defs>
</svg>
