<svg width="34" height="15" viewBox="0 0 34 15" fill="none" xmlns="http://www.w3.org/2000/svg">
<path d="M3 0H34L31 15H0L3 0Z" fill="#F36327"/>
<path d="M13.416 11H11.9512L9.09961 6.32227V11H7.63477V3.89062H9.09961L11.9561 8.57812V3.89062H13.416V11ZM17.0342 11.0977C16.2594 11.0977 15.6279 10.86 15.1396 10.3848C14.6546 9.90951 14.4121 9.27637 14.4121 8.48535V8.34863C14.4121 7.81803 14.5146 7.3444 14.7197 6.92773C14.9248 6.50781 15.2145 6.18555 15.5889 5.96094C15.9665 5.73307 16.3962 5.61914 16.8779 5.61914C17.6006 5.61914 18.1686 5.84701 18.582 6.30273C18.9987 6.75846 19.207 7.40462 19.207 8.24121V8.81738H15.8428C15.8883 9.16243 16.0251 9.43913 16.2529 9.64746C16.484 9.85579 16.7754 9.95996 17.127 9.95996C17.6706 9.95996 18.0954 9.76302 18.4014 9.36914L19.0947 10.1455C18.8831 10.445 18.5967 10.6794 18.2354 10.8486C17.874 11.0146 17.4736 11.0977 17.0342 11.0977ZM16.873 6.76172C16.5931 6.76172 16.3652 6.85612 16.1895 7.04492C16.0169 7.23372 15.9062 7.50391 15.8574 7.85547H17.8203V7.74316C17.8138 7.43066 17.7292 7.18978 17.5664 7.02051C17.4036 6.84798 17.1725 6.76172 16.873 6.76172ZM24.6074 9.08105L25.3008 5.7168H26.6631L25.3154 11H24.1338L23.1328 7.6748L22.1318 11H20.9551L19.6074 5.7168H20.9697L21.6582 9.07617L22.625 5.7168H23.6455L24.6074 9.08105Z" fill="white"/>
</svg>
